<?xml version="1.0" encoding="UTF-8"?>
<svg version="1.1" xmlns="http://www.w3.org/2000/svg" width="256" height="256">
<path d="M0 0 C0.99214005 -0.00669708 1.98428009 -0.01339417 3.00648499 -0.02029419 C5.09672162 -0.02504008 7.18706345 -0.01224513 9.27709961 0.01708984 C12.46120131 0.05455273 15.63837883 0.01743389 18.82226562 -0.02734375 C20.86069221 -0.02271699 22.89911451 -0.01374613 24.9375 0 C25.88044418 -0.01416962 26.82338837 -0.02833923 27.79490662 -0.04293823 C34.13945982 0.11299866 37.35443922 1.66890707 41.86476135 6.13815308 C42.69160683 7.02496262 42.69160683 7.02496262 43.53515625 7.9296875 C44.08352646 8.4363797 44.63189667 8.9430719 45.19688416 9.46511841 C46.53515625 10.9296875 46.53515625 10.9296875 47.47265625 13.9921875 C48.2188876 17.04291895 48.2188876 17.04291895 50.59765625 18.1171875 C51.23703125 18.3853125 51.87640625 18.6534375 52.53515625 18.9296875 C53.61458884 22.16798527 53.63515335 24.52995085 53.59765625 27.9296875 C53.58863281 28.9815625 53.57960937 30.0334375 53.5703125 31.1171875 C53.55291016 32.509375 53.55291016 32.509375 53.53515625 33.9296875 C53.53515625 34.9196875 53.53515625 35.9096875 53.53515625 36.9296875 C53.86515625 37.2596875 54.19515625 37.5896875 54.53515625 37.9296875 C55.11910599 43.364912 55.01507827 47.52178627 51.53515625 51.9296875 C48.97803354 55.04596771 46.38659664 58.07824711 43.53515625 60.9296875 C42.48796827 63.24222762 41.4916926 65.5782023 40.53515625 67.9296875 C40.12265625 68.7134375 39.71015625 69.4971875 39.28515625 70.3046875 C38.1436144 74.30008397 38.50235215 77.9257006 39.53515625 81.9296875 C41.59459369 84.87174099 42.63533687 85.75829333 46.16015625 86.4296875 C46.94390625 86.5946875 47.72765625 86.7596875 48.53515625 86.9296875 C49.84765625 88.9921875 49.84765625 88.9921875 50.53515625 90.9296875 C51.85515625 90.9296875 53.17515625 90.9296875 54.53515625 90.9296875 C54.53515625 89.9396875 54.53515625 88.9496875 54.53515625 87.9296875 C58.65377916 85.87037605 64.0087467 86.74479488 68.53515625 86.7421875 C70.21351563 86.72381836 70.21351563 86.72381836 71.92578125 86.70507812 C73.52679688 86.70217773 73.52679688 86.70217773 75.16015625 86.69921875 C76.14242187 86.69510986 77.1246875 86.69100098 78.13671875 86.68676758 C80.53515625 86.9296875 80.53515625 86.9296875 82.53515625 88.9296875 C82.16015625 92.0546875 82.16015625 92.0546875 81.53515625 94.9296875 C82.19515625 94.5996875 82.85515625 94.2696875 83.53515625 93.9296875 C83.86515625 92.9396875 84.19515625 91.9496875 84.53515625 90.9296875 C86.84515625 90.9296875 89.15515625 90.9296875 91.53515625 90.9296875 C91.86515625 89.6096875 92.19515625 88.2896875 92.53515625 86.9296875 C95.50515625 86.9296875 98.47515625 86.9296875 101.53515625 86.9296875 C102.19515625 88.2496875 102.85515625 89.5696875 103.53515625 90.9296875 C105.84515625 90.9296875 108.15515625 90.9296875 110.53515625 90.9296875 C110.53515625 94.8896875 110.53515625 98.8496875 110.53515625 102.9296875 C109.21515625 102.9296875 107.89515625 102.9296875 106.53515625 102.9296875 C106.53515625 104.2496875 106.53515625 105.5696875 106.53515625 106.9296875 C105.21515625 106.9296875 103.89515625 106.9296875 102.53515625 106.9296875 C102.53515625 107.9196875 102.53515625 108.9096875 102.53515625 109.9296875 C99.23515625 109.9296875 95.93515625 109.9296875 92.53515625 109.9296875 C92.53515625 107.6196875 92.53515625 105.3096875 92.53515625 102.9296875 C94.84515625 102.9296875 97.15515625 102.9296875 99.53515625 102.9296875 C99.53515625 101.6096875 99.53515625 100.2896875 99.53515625 98.9296875 C96.89515625 98.9296875 94.25515625 98.9296875 91.53515625 98.9296875 C91.53515625 102.8896875 91.53515625 106.8496875 91.53515625 110.9296875 C92.52515625 110.9296875 93.51515625 110.9296875 94.53515625 110.9296875 C94.53515625 112.2496875 94.53515625 113.5696875 94.53515625 114.9296875 C98.49515625 114.9296875 102.45515625 114.9296875 106.53515625 114.9296875 C106.53515625 117.5696875 106.53515625 120.2096875 106.53515625 122.9296875 C104.22515625 122.9296875 101.91515625 122.9296875 99.53515625 122.9296875 C99.6164155 126.15985476 99.7292223 129.38818638 99.84765625 132.6171875 C99.87021484 133.52919922 99.89277344 134.44121094 99.91601562 135.38085938 C100.12079925 140.50044989 100.58315387 143.60504535 103.53515625 147.9296875 C103.20515625 148.9196875 102.87515625 149.9096875 102.53515625 150.9296875 C108.80515625 150.9296875 115.07515625 150.9296875 121.53515625 150.9296875 C121.53515625 151.9196875 121.53515625 152.9096875 121.53515625 153.9296875 C124.17515625 153.5996875 126.81515625 153.2696875 129.53515625 152.9296875 C129.53515625 152.2696875 129.53515625 151.6096875 129.53515625 150.9296875 C131.18515625 151.2596875 132.83515625 151.5896875 134.53515625 151.9296875 C130.74891594 155.14225503 126.87348373 157.57570712 122.53515625 159.9296875 C121.60703125 160.4865625 120.67890625 161.0434375 119.72265625 161.6171875 C115.38890979 163.40167134 111.18265822 163.66332869 106.53515625 163.9296875 C106.86515625 164.5896875 107.19515625 165.2496875 107.53515625 165.9296875 C107.51999007 167.73879617 107.50339149 169.54790046 107.48095703 171.35693359 C107.59653112 176.84305879 108.35325814 182.29436508 108.97265625 187.7421875 C110.56677912 202.02827428 110.56677912 202.02827428 111.16015625 208.0859375 C111.24394531 208.93607422 111.32773438 209.78621094 111.4140625 210.66210938 C111.56716151 213.52901185 111.21248764 216.14510292 110.53515625 218.9296875 C109.87515625 218.9296875 109.21515625 218.9296875 108.53515625 218.9296875 C106.75755749 223.89889434 106.75755749 223.89889434 107.53515625 228.9296875 C108.09203125 228.6615625 108.64890625 228.3934375 109.22265625 228.1171875 C109.98578125 228.0553125 110.74890625 227.9934375 111.53515625 227.9296875 C113.39704049 229.53996576 114.904302 231.10827148 116.53515625 232.9296875 C118.40968766 234.75345035 120.29454934 236.56611881 122.1796875 238.37890625 C123.53515625 239.9296875 123.53515625 239.9296875 123.53515625 241.9296875 C124.85515625 242.5896875 126.17515625 243.2496875 127.53515625 243.9296875 C127.53515625 244.5896875 127.53515625 245.2496875 127.53515625 245.9296875 C128.1178125 246.17589844 128.70046875 246.42210937 129.30078125 246.67578125 C131.8822817 248.12449042 133.37360374 249.74162033 135.28515625 251.9921875 C135.89875 252.70503906 136.51234375 253.41789063 137.14453125 254.15234375 C138.53515625 255.9296875 138.53515625 255.9296875 138.53515625 256.9296875 C82.43515625 256.9296875 26.33515625 256.9296875 -31.46484375 256.9296875 C-31.46484375 251.9296875 -31.46484375 251.9296875 -30.46484375 249.9296875 C-30.79484375 248.9396875 -31.12484375 247.9496875 -31.46484375 246.9296875 C-30.45985243 244.30124866 -30.01677004 243.20565065 -27.46484375 241.9296875 C-25.78190255 237.83209152 -24.79972711 233.75140076 -26.34765625 229.51171875 C-27.64273375 227.2589043 -29.03785759 225.1006579 -30.46484375 222.9296875 C-31.84018438 219.91451766 -33.1214148 216.92020888 -34.20703125 213.7890625 C-35.77498591 209.10529404 -35.77498591 209.10529404 -39.46484375 205.9296875 C-42.36207432 201.31557956 -42.46484375 198.26736755 -42.46484375 192.9296875 C-43.57576088 187.49359967 -45.07280757 182.16444119 -46.71484375 176.8671875 C-47.46484375 173.9296875 -47.46484375 173.9296875 -46.46484375 170.9296875 C-45.80484375 170.9296875 -45.14484375 170.9296875 -44.46484375 170.9296875 C-42.07617941 163.76369447 -43.33128413 155.29782505 -44.46484375 147.9296875 C-45.12484375 147.9296875 -45.78484375 147.9296875 -46.46484375 147.9296875 C-47.12484375 145.2896875 -47.78484375 142.6496875 -48.46484375 139.9296875 C-49.12484375 139.9296875 -49.78484375 139.9296875 -50.46484375 139.9296875 C-51.12484375 136.6296875 -51.78484375 133.3296875 -52.46484375 129.9296875 C-54.11484375 129.9296875 -55.76484375 129.9296875 -57.46484375 129.9296875 C-59.35115918 128.04337207 -58.70749667 124.78768057 -58.78125 122.26953125 C-58.8020311 121.60506485 -58.82281219 120.94059845 -58.84422302 120.2559967 C-58.90978033 118.12650207 -58.9686316 115.99688082 -59.02734375 113.8671875 C-59.07052314 112.42641903 -59.11413724 110.98566351 -59.15820312 109.54492188 C-59.26546768 106.0066471 -59.36671746 102.46822881 -59.46484375 98.9296875 C-60.78484375 98.9296875 -62.10484375 98.9296875 -63.46484375 98.9296875 C-63.46484375 106.5196875 -63.46484375 114.1096875 -63.46484375 121.9296875 C-64.45484375 121.9296875 -65.44484375 121.9296875 -66.46484375 121.9296875 C-66.95984375 123.9096875 -66.95984375 123.9096875 -67.46484375 125.9296875 C-69.77484375 125.9296875 -72.08484375 125.9296875 -74.46484375 125.9296875 C-74.46484375 112.7296875 -74.46484375 99.5296875 -74.46484375 85.9296875 C-75.12484375 85.9296875 -75.78484375 85.9296875 -76.46484375 85.9296875 C-75.46484375 83.9296875 -75.46484375 83.9296875 -74.46484375 82.9296875 C-75.78484375 82.9296875 -77.10484375 82.9296875 -78.46484375 82.9296875 C-78.79484375 81.9396875 -79.12484375 80.9496875 -79.46484375 79.9296875 C-79.46484375 80.9196875 -79.46484375 81.9096875 -79.46484375 82.9296875 C-78.80484375 83.2596875 -78.14484375 83.5896875 -77.46484375 83.9296875 C-77.46484375 90.1996875 -77.46484375 96.4696875 -77.46484375 102.9296875 C-78.45484375 102.9296875 -79.44484375 102.9296875 -80.46484375 102.9296875 C-80.79484375 104.2496875 -81.12484375 105.5696875 -81.46484375 106.9296875 C-84.76484375 106.9296875 -88.06484375 106.9296875 -91.46484375 106.9296875 C-91.46484375 104.2896875 -91.46484375 101.6496875 -91.46484375 98.9296875 C-90.47484375 98.9296875 -89.48484375 98.9296875 -88.46484375 98.9296875 C-88.46484375 94.9696875 -88.46484375 91.0096875 -88.46484375 86.9296875 C-89.12484375 86.9296875 -89.78484375 86.9296875 -90.46484375 86.9296875 C-91.61350045 90.64136112 -91.67026808 94.23304977 -91.78125 98.1015625 C-91.8020311 98.7839801 -91.82281219 99.46639771 -91.84422302 100.16949463 C-91.90936427 102.33946106 -91.96843779 104.50954374 -92.02734375 106.6796875 C-92.07056272 108.15495971 -92.11417807 109.63022037 -92.15820312 111.10546875 C-92.26500893 114.71341916 -92.36637528 118.32149883 -92.46484375 121.9296875 C-93.78484375 121.9296875 -95.10484375 121.9296875 -96.46484375 121.9296875 C-96.46484375 123.2496875 -96.46484375 124.5696875 -96.46484375 125.9296875 C-98.46439121 125.97223106 -100.46526011 125.97049533 -102.46484375 125.9296875 C-103.46484375 124.9296875 -103.46484375 124.9296875 -103.57836914 120.96069336 C-103.57820995 119.18863143 -103.5725116 117.4165649 -103.5625 115.64453125 C-103.56037758 114.24830284 -103.56037758 114.24830284 -103.55821228 112.8238678 C-103.55259547 109.83827559 -103.54004015 106.85275721 -103.52734375 103.8671875 C-103.52233091 101.84830837 -103.51776763 99.82942807 -103.51367188 97.81054688 C-103.50262058 92.85023178 -103.4853447 87.88997218 -103.46484375 82.9296875 C-104.78484375 82.9296875 -106.10484375 82.9296875 -107.46484375 82.9296875 C-107.49184805 81.47145538 -107.51124162 80.01308075 -107.52734375 78.5546875 C-107.53894531 77.74257812 -107.55054687 76.93046875 -107.5625 76.09375 C-107.46484375 73.9296875 -107.46484375 73.9296875 -106.46484375 71.9296875 C-99.53484375 71.9296875 -92.60484375 71.9296875 -85.46484375 71.9296875 C-85.13484375 73.2496875 -84.80484375 74.5696875 -84.46484375 75.9296875 C-80.80179141 76.67894821 -78.04129223 77.1676889 -74.46484375 75.9296875 C-74.46484375 75.2696875 -74.46484375 74.6096875 -74.46484375 73.9296875 C-73.47484375 73.9296875 -72.48484375 73.9296875 -71.46484375 73.9296875 C-71.46484375 73.2696875 -71.46484375 72.6096875 -71.46484375 71.9296875 C-68.82484375 71.9296875 -66.18484375 71.9296875 -63.46484375 71.9296875 C-62.61803242 77.01055546 -62.37446276 81.77797127 -62.46484375 86.9296875 C-61.35943449 84.14050601 -61.35943449 84.14050601 -61.46484375 81.9296875 C-60.80484375 81.9296875 -60.14484375 81.9296875 -59.46484375 81.9296875 C-58.96984375 80.4446875 -58.96984375 80.4446875 -58.46484375 78.9296875 C-56.20329481 77.79891303 -54.96601546 77.82580782 -52.46484375 77.8671875 C-51.76359375 77.87621094 -51.06234375 77.88523437 -50.33984375 77.89453125 C-49.72109375 77.90613281 -49.10234375 77.91773437 -48.46484375 77.9296875 C-47.80484375 77.9296875 -47.14484375 77.9296875 -46.46484375 77.9296875 C-42.79817708 77.9296875 -39.13151042 77.9296875 -35.46484375 77.9296875 C-34.30543337 81.40791865 -34.75663491 83.38864328 -35.46484375 86.9296875 C-34.80484375 86.9296875 -34.14484375 86.9296875 -33.46484375 86.9296875 C-33.46484375 85.2796875 -33.46484375 83.6296875 -33.46484375 81.9296875 C-30.42097651 81.84742082 -28.39309027 81.95360533 -25.46484375 82.9296875 C-24.96984375 81.4446875 -24.96984375 81.4446875 -24.46484375 79.9296875 C-23.47484375 79.5996875 -22.48484375 79.2696875 -21.46484375 78.9296875 C-20.47484375 77.4446875 -20.47484375 77.4446875 -19.46484375 75.9296875 C-15.83984375 75.7421875 -15.83984375 75.7421875 -12.46484375 75.9296875 C-12.46484375 74.6096875 -12.46484375 73.2896875 -12.46484375 71.9296875 C-11.47484375 71.5996875 -10.48484375 71.2696875 -9.46484375 70.9296875 C-13.36402595 63.59475049 -17.48001086 57.75276815 -23.46484375 51.9296875 C-26.10698043 49.28755082 -24.77477514 41.97652118 -24.78833008 38.43115234 C-24.68868904 30.05989146 -23.3155761 22.8049548 -20.46484375 14.9296875 C-20.06910156 13.78242188 -19.67335938 12.63515625 -19.265625 11.453125 C-14.72140177 2.56182488 -9.82891978 -0.14738273 0 0 Z M50.53515625 22.9296875 C50.53515625 26.5596875 50.53515625 30.1896875 50.53515625 33.9296875 C50.86515625 33.9296875 51.19515625 33.9296875 51.53515625 33.9296875 C51.53515625 30.2996875 51.53515625 26.6696875 51.53515625 22.9296875 C51.20515625 22.9296875 50.87515625 22.9296875 50.53515625 22.9296875 Z M-21.46484375 46.9296875 C-20.46484375 49.9296875 -20.46484375 49.9296875 -20.46484375 49.9296875 Z M-20.46484375 49.9296875 C-19.46484375 51.9296875 -19.46484375 51.9296875 -19.46484375 51.9296875 Z M-19.46484375 51.9296875 C-18.46484375 53.9296875 -18.46484375 53.9296875 -18.46484375 53.9296875 Z M-104.46484375 72.9296875 C-105.45484375 74.4146875 -105.45484375 74.4146875 -106.46484375 75.9296875 C-105.47484375 75.9296875 -104.48484375 75.9296875 -103.46484375 75.9296875 C-103.79484375 74.9396875 -104.12484375 73.9496875 -104.46484375 72.9296875 Z M-71.46484375 73.9296875 C-72.12484375 74.5896875 -72.78484375 75.2496875 -73.46484375 75.9296875 C-72.47484375 75.9296875 -71.48484375 75.9296875 -70.46484375 75.9296875 C-70.79484375 75.2696875 -71.12484375 74.6096875 -71.46484375 73.9296875 Z M-5.46484375 74.9296875 C-5.46484375 80.2096875 -5.46484375 85.4896875 -5.46484375 90.9296875 C-4.14484375 89.9396875 -2.82484375 88.9496875 -1.46484375 87.9296875 C-0.92016695 83.11837575 -1.71652063 79.40976548 -3.46484375 74.9296875 C-4.12484375 74.9296875 -4.78484375 74.9296875 -5.46484375 74.9296875 Z M-52.46484375 78.9296875 C-51.47484375 79.4246875 -51.47484375 79.4246875 -50.46484375 79.9296875 C-50.46484375 83.8896875 -50.46484375 87.8496875 -50.46484375 91.9296875 C-50.13484375 91.2696875 -49.80484375 90.6096875 -49.46484375 89.9296875 C-48.47484375 89.5996875 -47.48484375 89.2696875 -46.46484375 88.9296875 C-46.13484375 87.2796875 -45.80484375 85.6296875 -45.46484375 83.9296875 C-45.13484375 85.2496875 -44.80484375 86.5696875 -44.46484375 87.9296875 C-43.80484375 87.5996875 -43.14484375 87.2696875 -42.46484375 86.9296875 C-42.46484375 86.2696875 -42.46484375 85.6096875 -42.46484375 84.9296875 C-43.12484375 84.9296875 -43.78484375 84.9296875 -44.46484375 84.9296875 C-44.46484375 83.2796875 -44.46484375 81.6296875 -44.46484375 79.9296875 C-43.14484375 79.9296875 -41.82484375 79.9296875 -40.46484375 79.9296875 C-40.46484375 81.5796875 -40.46484375 83.2296875 -40.46484375 84.9296875 C-40.13484375 84.2696875 -39.80484375 83.6096875 -39.46484375 82.9296875 C-38.80484375 82.5996875 -38.14484375 82.2696875 -37.46484375 81.9296875 C-37.46484375 80.9396875 -37.46484375 79.9496875 -37.46484375 78.9296875 C-40.10484375 78.9296875 -42.74484375 78.9296875 -45.46484375 78.9296875 C-45.46484375 79.5896875 -45.46484375 80.2496875 -45.46484375 80.9296875 C-46.78484375 80.9296875 -48.10484375 80.9296875 -49.46484375 80.9296875 C-49.46484375 80.2696875 -49.46484375 79.6096875 -49.46484375 78.9296875 C-50.45484375 78.9296875 -51.44484375 78.9296875 -52.46484375 78.9296875 Z M-54.46484375 78.9296875 C-54.46484375 79.5896875 -54.46484375 80.2496875 -54.46484375 80.9296875 C-55.45484375 81.2596875 -56.44484375 81.5896875 -57.46484375 81.9296875 C-56.80484375 81.9296875 -56.14484375 81.9296875 -55.46484375 81.9296875 C-55.46484375 83.5796875 -55.46484375 85.2296875 -55.46484375 86.9296875 C-55.13484375 86.9296875 -54.80484375 86.9296875 -54.46484375 86.9296875 C-54.46484375 85.2796875 -54.46484375 83.6296875 -54.46484375 81.9296875 C-53.47484375 81.5996875 -52.48484375 81.2696875 -51.46484375 80.9296875 C-52.12484375 80.9296875 -52.78484375 80.9296875 -53.46484375 80.9296875 C-53.79484375 80.2696875 -54.12484375 79.6096875 -54.46484375 78.9296875 Z M-21.46484375 80.9296875 C-21.79484375 82.2496875 -22.12484375 83.5696875 -22.46484375 84.9296875 C-21.50578125 85.3628125 -21.50578125 85.3628125 -20.52734375 85.8046875 C-18.46484375 86.9296875 -18.46484375 86.9296875 -17.46484375 88.9296875 C-18.78484375 88.2696875 -20.10484375 87.6096875 -21.46484375 86.9296875 C-22.45484375 87.9196875 -23.44484375 88.9096875 -24.46484375 89.9296875 C-21.98984375 90.9196875 -21.98984375 90.9196875 -19.46484375 91.9296875 C-19.46484375 91.2696875 -19.46484375 90.6096875 -19.46484375 89.9296875 C-18.47484375 89.9296875 -17.48484375 89.9296875 -16.46484375 89.9296875 C-16.46484375 87.6196875 -16.46484375 85.3096875 -16.46484375 82.9296875 C-17.45484375 82.9296875 -18.44484375 82.9296875 -19.46484375 82.9296875 C-20.12484375 82.2696875 -20.78484375 81.6096875 -21.46484375 80.9296875 Z M-58.46484375 82.9296875 C-57.46484375 84.9296875 -57.46484375 84.9296875 -57.46484375 84.9296875 Z M-52.46484375 82.9296875 C-52.46484375 84.9096875 -52.46484375 86.8896875 -52.46484375 88.9296875 C-52.13484375 88.9296875 -51.80484375 88.9296875 -51.46484375 88.9296875 C-51.46484375 86.9496875 -51.46484375 84.9696875 -51.46484375 82.9296875 C-51.79484375 82.9296875 -52.12484375 82.9296875 -52.46484375 82.9296875 Z M-31.46484375 82.9296875 C-30.47484375 84.4146875 -30.47484375 84.4146875 -29.46484375 85.9296875 C-29.46484375 84.9396875 -29.46484375 83.9496875 -29.46484375 82.9296875 C-30.12484375 82.9296875 -30.78484375 82.9296875 -31.46484375 82.9296875 Z M-38.46484375 83.9296875 C-37.46484375 86.9296875 -37.46484375 86.9296875 -37.46484375 86.9296875 Z M-26.46484375 83.9296875 C-26.79484375 84.5896875 -27.12484375 85.2496875 -27.46484375 85.9296875 C-28.45484375 86.5896875 -29.44484375 87.2496875 -30.46484375 87.9296875 C-29.14484375 87.9296875 -27.82484375 87.9296875 -26.46484375 87.9296875 C-26.65046875 88.4453125 -26.83609375 88.9609375 -27.02734375 89.4921875 C-27.61903892 92.78877489 -27.03211075 95.65214485 -26.46484375 98.9296875 C-25.14484375 98.9296875 -23.82484375 98.9296875 -22.46484375 98.9296875 C-22.46484375 99.9196875 -22.46484375 100.9096875 -22.46484375 101.9296875 C-21.53671875 101.465625 -21.53671875 101.465625 -20.58984375 100.9921875 C-19.21484375 100.3046875 -17.83984375 99.6171875 -16.46484375 98.9296875 C-16.46484375 96.2896875 -16.46484375 93.6496875 -16.46484375 90.9296875 C-17.12484375 90.9296875 -17.78484375 90.9296875 -18.46484375 90.9296875 C-18.46484375 91.5896875 -18.46484375 92.2496875 -18.46484375 92.9296875 C-20.44484375 92.9296875 -22.42484375 92.9296875 -24.46484375 92.9296875 C-24.58984375 88.1796875 -24.58984375 88.1796875 -23.46484375 85.9296875 C-23.79484375 85.2696875 -24.12484375 84.6096875 -24.46484375 83.9296875 C-25.12484375 83.9296875 -25.78484375 83.9296875 -26.46484375 83.9296875 Z M-42.46484375 86.9296875 C-40.48484375 87.9196875 -40.48484375 87.9196875 -38.46484375 88.9296875 C-38.46484375 88.2696875 -38.46484375 87.6096875 -38.46484375 86.9296875 C-39.78484375 86.9296875 -41.10484375 86.9296875 -42.46484375 86.9296875 Z M-63.46484375 87.9296875 C-62.46484375 91.9296875 -62.46484375 91.9296875 -62.46484375 91.9296875 Z M-45.46484375 88.9296875 C-44.46484375 90.9296875 -44.46484375 90.9296875 -44.46484375 90.9296875 Z M-46.46484375 90.9296875 C-45.46484375 92.9296875 -45.46484375 92.9296875 -45.46484375 92.9296875 Z M-47.46484375 93.9296875 C-47.79484375 98.2196875 -48.12484375 102.5096875 -48.46484375 106.9296875 C-47.47484375 106.9296875 -46.48484375 106.9296875 -45.46484375 106.9296875 C-45.46484375 105.6096875 -45.46484375 104.2896875 -45.46484375 102.9296875 C-42.82484375 102.9296875 -40.18484375 102.9296875 -37.46484375 102.9296875 C-37.79484375 101.6096875 -38.12484375 100.2896875 -38.46484375 98.9296875 C-40.77484375 98.9296875 -43.08484375 98.9296875 -45.46484375 98.9296875 C-45.79484375 97.2796875 -46.12484375 95.6296875 -46.46484375 93.9296875 C-46.79484375 93.9296875 -47.12484375 93.9296875 -47.46484375 93.9296875 Z M62.53515625 94.9296875 C62.53515625 96.5796875 62.53515625 98.2296875 62.53515625 99.9296875 C64.51515625 100.9196875 64.51515625 100.9196875 66.53515625 101.9296875 C66.53515625 99.6196875 66.53515625 97.3096875 66.53515625 94.9296875 C65.21515625 94.9296875 63.89515625 94.9296875 62.53515625 94.9296875 Z M78.53515625 94.9296875 C78.53515625 97.2396875 78.53515625 99.5496875 78.53515625 101.9296875 C77.21515625 102.2596875 75.89515625 102.5896875 74.53515625 102.9296875 C74.86515625 103.9196875 75.19515625 104.9096875 75.53515625 105.9296875 C77.4964438 106.7534831 77.4964438 106.7534831 79.53515625 106.9296875 C81.27472283 105.19012092 80.90706011 102.7360253 81.09765625 100.3671875 C81.18144531 99.35527344 81.26523438 98.34335938 81.3515625 97.30078125 C81.41214844 96.51832031 81.47273437 95.73585938 81.53515625 94.9296875 C80.54515625 94.9296875 79.55515625 94.9296875 78.53515625 94.9296875 Z M104.53515625 153.9296875 C103.75232977 155.72168222 103.75232977 155.72168222 103.53515625 157.9296875 C104.88679295 160.17724503 104.88679295 160.17724503 106.53515625 161.9296875 C107.95321456 161.64486382 109.36956004 161.35150606 110.78515625 161.0546875 C111.5740625 160.89226562 112.36296875 160.72984375 113.17578125 160.5625 C115.50346769 159.93818675 117.42547577 159.08130208 119.53515625 157.9296875 C118.66503906 157.87361328 118.66503906 157.87361328 117.77734375 157.81640625 C112.71836761 157.39065083 108.99236467 156.55829759 104.53515625 153.9296875 Z " fill="#060404" transform="translate(108.46484375,-0.9296875)"/>
<path d="M0 0 C6.93 0 13.86 0 21 0 C21.33 1.32 21.66 2.64 22 4 C25.66305234 4.74926071 28.42355152 5.2380014 32 4 C32 3.34 32 2.68 32 2 C32.99 2 33.98 2 35 2 C35 1.34 35 0.68 35 0 C37.64 0 40.28 0 43 0 C43.6416116 3.84966958 44.05640069 7.46925237 44 11.375 C44 12.57125 44 13.7675 44 15 C45.49743119 16.49743119 46.98824239 16.33202693 49.0625 16.5625 C50.361875 16.706875 51.66125 16.85125 53 17 C53 18.65 53 20.3 53 22 C54.32 22 55.64 22 57 22 C57 30.91 57 39.82 57 49 C58.32 49.33 59.64 49.66 61 50 C60.79503906 50.54527344 60.59007812 51.09054688 60.37890625 51.65234375 C58.41324021 57.15432765 57.46218398 62.1764819 57 68 C54.70366176 64.55549263 54.45983515 62.06187717 54 58 C53.195625 58.020625 52.39125 58.04125 51.5625 58.0625 C49 58 49 58 48 57 C47.84126045 54.78312006 47.74866163 52.56144702 47.68359375 50.33984375 C47.66281265 49.67537735 47.64203156 49.01091095 47.62062073 48.3263092 C47.55506342 46.19681457 47.49621215 44.06719332 47.4375 41.9375 C47.39432061 40.49673153 47.35070651 39.05597601 47.30664062 37.61523438 C47.19937607 34.0769596 47.09812629 30.53854131 47 27 C45.68 27 44.36 27 43 27 C43 34.59 43 42.18 43 50 C42.01 50 41.02 50 40 50 C39.67 51.32 39.34 52.64 39 54 C36.69 54 34.38 54 32 54 C32 40.8 32 27.6 32 14 C31.34 14 30.68 14 30 14 C31 12 31 12 32 11 C30.68 11 29.36 11 28 11 C27.67 10.01 27.34 9.02 27 8 C27 8.99 27 9.98 27 11 C27.66 11.33 28.32 11.66 29 12 C29 18.27 29 24.54 29 31 C28.01 31 27.02 31 26 31 C25.67 32.32 25.34 33.64 25 35 C21.7 35 18.4 35 15 35 C15 32.36 15 29.72 15 27 C15.99 27 16.98 27 18 27 C18 23.04 18 19.08 18 15 C17.34 15 16.68 15 16 15 C14.8513433 18.71167362 14.79457567 22.30336227 14.68359375 26.171875 C14.66281265 26.8542926 14.64203156 27.53671021 14.62062073 28.23980713 C14.55547948 30.40977356 14.49640596 32.57985624 14.4375 34.75 C14.39428103 36.22527221 14.35066568 37.70053287 14.30664062 39.17578125 C14.19983482 42.78373166 14.09846847 46.39181133 14 50 C12.68 50 11.36 50 10 50 C10 51.32 10 52.64 10 54 C8.00045254 54.04254356 5.99958364 54.04080783 4 54 C3 53 3 53 2.88647461 49.03100586 C2.8866338 47.25894393 2.89233215 45.4868774 2.90234375 43.71484375 C2.90446617 42.31861534 2.90446617 42.31861534 2.90663147 40.8941803 C2.91224828 37.90858809 2.9248036 34.92306971 2.9375 31.9375 C2.94251284 29.91862087 2.94707612 27.89974057 2.95117188 25.88085938 C2.96222317 20.92054428 2.97949905 15.96028468 3 11 C1.68 11 0.36 11 -1 11 C-1.0270043 9.54176788 -1.04639787 8.08339325 -1.0625 6.625 C-1.07410156 5.81289062 -1.08570312 5.00078125 -1.09765625 4.1640625 C-1 2 -1 2 0 0 Z M2 1 C1.01 2.485 1.01 2.485 0 4 C0.99 4 1.98 4 3 4 C2.67 3.01 2.34 2.02 2 1 Z M35 2 C34.34 2.66 33.68 3.32 33 4 C33.99 4 34.98 4 36 4 C35.67 3.34 35.34 2.68 35 2 Z M43 16 C44 20 44 20 44 20 Z " fill="#120000" transform="translate(2,71)"/>
<path d="M0 0 C1.32 0 2.64 0 4 0 C4.66 1.32 5.32 2.64 6 4 C7.32 4 8.64 4 10 4 C10 3.01 10 2.02 10 1 C14.11862291 -1.05931145 19.47359045 -0.18489262 24 -0.1875 C25.11890625 -0.19974609 26.2378125 -0.21199219 27.390625 -0.22460938 C28.99164063 -0.22750977 28.99164063 -0.22750977 30.625 -0.23046875 C31.60726562 -0.23457764 32.58953125 -0.23868652 33.6015625 -0.24291992 C36 0 36 0 38 2 C37.625 5.125 37.625 5.125 37 8 C37.66 7.67 38.32 7.34 39 7 C39.33 6.01 39.66 5.02 40 4 C42.31 4 44.62 4 47 4 C47.33 2.68 47.66 1.36 48 0 C50.97 0 53.94 0 57 0 C57.66 1.32 58.32 2.64 59 4 C61.31 4 63.62 4 66 4 C66 7.96 66 11.92 66 16 C64.68 16 63.36 16 62 16 C62 17.32 62 18.64 62 20 C60.68 20 59.36 20 58 20 C58 20.99 58 21.98 58 23 C55.03 22.67 52.06 22.34 49 22 C49 20.68 49 19.36 49 18 C51.64 18 54.28 18 57 18 C57 15.36 57 12.72 57 10 C53.04 10 49.08 10 45 10 C45 15.28 45 20.56 45 26 C46.32 26 47.64 26 49 26 C49 27.32 49 28.64 49 30 C52.63 30 56.26 30 60 30 C60 30.99 60 31.98 60 33 C57.69 33 55.38 33 53 33 C53 34.32 53 35.64 53 37 C50.69 37 48.38 37 46 37 C46 35.68 46 34.36 46 33 C44.35 33 42.7 33 41 33 C41 32.01 41 31.02 41 30 C39.35 30 37.7 30 36 30 C36 33.63 36 37.26 36 41 C34.35 41 32.7 41 31 41 C31 41.99 31 42.98 31 44 C25.06 44 19.12 44 13 44 C13 43.01 13 42.02 13 41 C11.35 41 9.7 41 8 41 C7.67 38.69 7.34 36.38 7 34 C5.35 33.67 3.7 33.34 2 33 C2 34.32 2 35.64 2 37 C1.01 37 0.02 37 -1 37 C-1 26.77 -1 16.54 -1 6 C-2.32 6 -3.64 6 -5 6 C-5 4.68 -5 3.36 -5 2 C-3.35 1.67 -1.7 1.34 0 1 C0 0.67 0 0.34 0 0 Z M18 8 C18 9.65 18 11.3 18 13 C19.98 13.99 19.98 13.99 22 15 C22 12.69 22 10.38 22 8 C20.68 8 19.36 8 18 8 Z M34 8 C34 10.31 34 12.62 34 15 C32.68 15.33 31.36 15.66 30 16 C30.33 16.99 30.66 17.98 31 19 C32.96128755 19.8237956 32.96128755 19.8237956 35 20 C36.73956658 18.26043342 36.37190386 15.8063378 36.5625 13.4375 C36.64628906 12.42558594 36.73007813 11.41367188 36.81640625 10.37109375 C36.87699219 9.58863281 36.93757813 8.80617188 37 8 C36.01 8 35.02 8 34 8 Z " fill="#100101" transform="translate(153,86)"/>
<path d="M0 0 C4.75 1.875 4.75 1.875 7 3 C7.969375 2.62875 8.93875 2.2575 9.9375 1.875 C14.30855318 0.55819737 17.89396444 1.49237501 22.25390625 2.4921875 C29.61188765 6.53227402 31.97110306 13.93982321 34.22460938 21.60351562 C34.54236328 22.74498047 34.86011719 23.88644531 35.1875 25.0625 C35.84416755 27.34605819 36.50423176 29.62864283 37.16796875 31.91015625 C37.47524902 32.96734863 37.7825293 34.02454102 38.09912109 35.11376953 C39.17142058 38.54919625 40.47374377 41.74430172 42 45 C41.35933594 45.43570313 40.71867187 45.87140625 40.05859375 46.3203125 C35.87649753 49.19978859 31.80405884 52.06773117 28 55.4375 C25 58 25 58 23 58 C22.4121875 56.88625 22.4121875 56.88625 21.8125 55.75 C18.05846134 50.05421721 12.24752359 48.75369083 6 47 C1.15968277 44.95844046 -3.07272492 42.36733131 -7.265625 39.22265625 C-9.05312132 37.96255186 -10.87897768 36.95619461 -12.8125 35.9375 C-15.86085552 34.08457802 -16.93354764 33.31785179 -18 30 C-15.33964942 28.97018687 -13.56231688 28.79119851 -10.875 29.7890625 C-9.32088978 30.51886426 -7.77142426 31.25863205 -6.2265625 32.0078125 C-3.52288589 33.21260874 -0.93577815 33.69889455 2 34 C0.05524366 28.47279778 -2.25840112 23.37285689 -5.01171875 18.19921875 C-6 16 -6 16 -6 13 C-0.58461538 10.78461538 -0.58461538 10.78461538 2.375 11.875 C2.91125 12.24625 3.4475 12.6175 4 13 C3.01 11.02 2.02 9.04 1 7 C-0.98 7.66 -2.96 8.32 -5 9 C-5.33 8.01 -5.66 7.02 -6 6 C-4 4 -2 2 0 0 Z " fill="#B88C70" transform="translate(132,128)"/>
<path d="M0 0 C2.1875 0.0625 2.1875 0.0625 4 1 C4.495 2.485 4.495 2.485 5 4 C5.556875 3.731875 6.11375 3.46375 6.6875 3.1875 C7.450625 3.125625 8.21375 3.06375 9 3 C10.86188424 4.61027826 12.36914575 6.17858398 14 8 C15.87453141 9.82376285 17.75939309 11.63643131 19.64453125 13.44921875 C21 15 21 15 21 17 C22.32 17.66 23.64 18.32 25 19 C25 19.66 25 20.32 25 21 C25.58265625 21.24621094 26.1653125 21.49242187 26.765625 21.74609375 C29.34712545 23.19480292 30.83844749 24.81193283 32.75 27.0625 C33.36359375 27.77535156 33.9771875 28.48820312 34.609375 29.22265625 C36 31 36 31 36 32 C16.2 32 -3.6 32 -24 32 C-29 18 -29 18 -28 15 C-27.03513672 14.94005859 -27.03513672 14.94005859 -26.05078125 14.87890625 C-16.24515493 13.74587382 -8.62307746 8.72778131 -1.7578125 1.70703125 C-1.17773438 1.14371094 -0.59765625 0.58039063 0 0 Z " fill="#936B4F" transform="translate(211,224)"/>
<path d="M0 0 C3.15835107 1.39750048 5.32272825 3.05198234 7.75 5.5 C8.67039062 6.41265625 8.67039062 6.41265625 9.609375 7.34375 C11 9 11 9 11 11 C11.639375 11.28875 12.27875 11.5775 12.9375 11.875 C15 13 15 13 16 15 C15.66015625 17.3828125 15.66015625 17.3828125 15.0625 20.125 C14.86785156 21.03507812 14.67320313 21.94515625 14.47265625 22.8828125 C14.31667969 23.58148438 14.16070312 24.28015625 14 25 C12.35 25 10.7 25 9 25 C9 25.66 9 26.32 9 27 C11.64 27 14.28 27 17 27 C17 25.68 17 24.36 17 23 C17.99 23 18.98 23 20 23 C20.33 23.99 20.66 24.98 21 26 C21.99 26.33 22.98 26.66 24 27 C24 29.31 24 31.62 24 34 C25.32 34 26.64 34 28 34 C28 36.64 28 39.28 28 42 C29.32 42 30.64 42 32 42 C32 45.63 32 49.26 32 53 C30.68 53 29.36 53 28 53 C28 54.32 28 55.64 28 57 C27.01 57 26.02 57 25 57 C25 53.04 25 49.08 25 45 C23.68 45 22.36 45 21 45 C21 43.68 21 42.36 21 41 C18.36 41 15.72 41 13 41 C13 43.97 13 46.94 13 50 C15.31 50 17.62 50 20 50 C20 50.99 20 51.98 20 53 C19.01 53 18.02 53 17 53 C17 54.32 17 55.64 17 57 C14.36 57 11.72 57 9 57 C9 55.68 9 54.36 9 53 C5.7 53 2.4 53 -1 53 C-1 54.32 -1 55.64 -1 57 C-1.99 57 -2.98 57 -4 57 C-4 42.81 -4 28.62 -4 14 C-5.32 14 -6.64 14 -8 14 C-8 13.01 -8 12.02 -8 11 C-5.36 11 -2.72 11 0 11 C0 9.68 0 8.36 0 7 C1.32 7 2.64 7 4 7 C4.33 12.61 4.66 18.22 5 24 C8.33827688 21.31360942 8.33827688 21.31360942 8.25 17.6875 C8.02644991 14.39013624 7.63247469 11.24143278 7 8 C6.34 8 5.68 8 5 8 C0 2.52380952 0 2.52380952 0 0 Z " fill="#310303" transform="translate(98,66)"/>
<path d="M0 0 C2.64 0 5.28 0 8 0 C8.268125 0.639375 8.53625 1.27875 8.8125 1.9375 C9.88667752 4.33131686 9.88667752 4.33131686 13 5 C13 7.31 13 9.62 13 12 C11.68 12 10.36 12 9 12 C9.33 14.64 9.66 17.28 10 20 C10.99 20 11.98 20 13 20 C13 23.96 13 27.92 13 32 C12.01 32 11.02 32 10 32 C9.67 32.99 9.34 33.98 9 35 C6.69 35 4.38 35 2 35 C1.67 36.32 1.34 37.64 1 39 C-3.62 39 -8.24 39 -13 39 C-13 37.68 -13 36.36 -13 35 C-14.32 35 -15.64 35 -17 35 C-17 32.69 -17 30.38 -17 28 C-15.68 28 -14.36 28 -13 28 C-13 26.68 -13 25.36 -13 24 C-11.68 24 -10.36 24 -9 24 C-9 22.68 -9 21.36 -9 20 C-10.32 20 -11.64 20 -13 20 C-13 16.04 -13 12.08 -13 8 C-12.01 8 -11.02 8 -10 8 C-9.34 6.68 -8.68 5.36 -8 4 C-6.02 4 -4.04 4 -2 4 C-1.34 2.68 -0.68 1.36 0 0 Z M2 14 C3 16 3 16 3 16 Z M-6 24 C-6 25.32 -6 26.64 -6 28 C-3.36 28 -0.72 28 2 28 C0.25065102 25.91666921 0.25065102 25.91666921 -2 24 C-3.32 24 -4.64 24 -6 24 Z " fill="#0F0000" transform="translate(235,86)"/>
<path d="M0 0 C4.95 0 9.9 0 15 0 C15 1.32 15 2.64 15 4 C16.32 4 17.64 4 19 4 C19 6.64 19 9.28 19 12 C20.32 12 21.64 12 23 12 C23 16.95 23 21.9 23 27 C21.68 27 20.36 27 19 27 C19 28.32 19 29.64 19 31 C16.69 31 14.38 31 12 31 C12.16628906 30.31292969 12.33257813 29.62585938 12.50390625 28.91796875 C13.24526883 24.55735576 12.96466749 20.27205573 12.83984375 15.86328125 C13 13 13 13 15 11 C14.01 11 13.02 11 12 11 C11.67 10.01 11.34 9.02 11 8 C9.68 7.67 8.36 7.34 7 7 C7 19.87 7 32.74 7 46 C5.68 46 4.36 46 3 46 C3 47.32 3 48.64 3 50 C2.01 50 1.02 50 0 50 C0 35.81 0 21.62 0 7 C-1.32 7 -2.64 7 -4 7 C-4 6.01 -4 5.02 -4 4 C-2.68 4 -1.36 4 0 4 C0 2.68 0 1.36 0 0 Z " fill="#760000" transform="translate(7,73)"/>
<path d="M0 0 C1.32 0 2.64 0 4 0 C4.66 1.32 5.32 2.64 6 4 C7.32 4 8.64 4 10 4 C10 3.01 10 2.02 10 1 C18.25 1.33 26.5 1.66 35 2 C35 2.33 35 2.66 35 3 C27.74 3 20.48 3 13 3 C13 3.99 13 4.98 13 6 C11.68 6 10.36 6 9 6 C9 9.63 9 13.26 9 17 C10.32 17 11.64 17 13 17 C13 19.64 13 22.28 13 25 C15.31 25 17.62 25 20 25 C20 26.32 20 27.64 20 29 C22.64 29 25.28 29 28 29 C28 32.96 28 36.92 28 41 C24.04 41 20.08 41 16 41 C16 37.04 16 33.08 16 29 C14.68 29 13.36 29 12 29 C12 30.32 12 31.64 12 33 C11.01 33 10.02 33 9 33 C9 35.31 9 37.62 9 40 C9.99 40.33 10.98 40.66 12 41 C10.68 41 9.36 41 8 41 C7.67 38.69 7.34 36.38 7 34 C5.35 33.67 3.7 33.34 2 33 C2 34.32 2 35.64 2 37 C1.01 37 0.02 37 -1 37 C-1 26.77 -1 16.54 -1 6 C-2.32 6 -3.64 6 -5 6 C-5 4.68 -5 3.36 -5 2 C-3.35 1.67 -1.7 1.34 0 1 C0 0.67 0 0.34 0 0 Z " fill="#040000" transform="translate(153,86)"/>
<path d="M0 0 C7.26 0 14.52 0 22 0 C22 0.99 22 1.98 22 3 C20.68 3 19.36 3 18 3 C18 5.31 18 7.62 18 10 C17.01 10.33 16.02 10.66 15 11 C14.67 11.99 14.34 12.98 14 14 C13.01 14 12.02 14 11 14 C11 10.37 11 6.74 11 3 C8.36 3 5.72 3 3 3 C3 6.96 3 10.92 3 15 C4.32 15 5.64 15 7 15 C7 16.32 7 17.64 7 19 C9.31 19 11.62 19 14 19 C14.33 19.99 14.66 20.98 15 22 C15.99 22.33 16.98 22.66 18 23 C18.33 23.99 18.66 24.98 19 26 C19.99 26.33 20.98 26.66 22 27 C22 30.3 22 33.6 22 37 C20.515 37.495 20.515 37.495 19 38 C18.67 38.99 18.34 39.98 18 41 C12.06 41 6.12 41 0 41 C-0.495 39.515 -0.495 39.515 -1 38 C-1.99 37.67 -2.98 37.34 -4 37 C-4 34.69 -4 32.38 -4 30 C-3.01 30 -2.02 30 -1 30 C-1 28.68 -1 27.36 -1 26 C0.32 26 1.64 26 3 26 C3 29.96 3 33.92 3 38 C6.96 38 10.92 38 15 38 C15 34.04 15 30.08 15 26 C12.36 26 9.72 26 7 26 C7 24.68 7 23.36 7 22 C4.69 22 2.38 22 0 22 C0 19.36 0 16.72 0 14 C-1.32 14 -2.64 14 -4 14 C-4 10.37 -4 6.74 -4 3 C-2.68 3 -1.36 3 0 3 C0 2.01 0 1.02 0 0 Z " fill="#720000" transform="translate(166,89)"/>
<path d="M0 0 C0.99 0 1.98 0 3 0 C3.33 0.99 3.66 1.98 4 3 C4.99 3.33 5.98 3.66 7 4 C7 6.31 7 8.62 7 11 C8.32 11 9.64 11 11 11 C11 13.64 11 16.28 11 19 C12.32 19 13.64 19 15 19 C15 22.63 15 26.26 15 30 C13.68 30 12.36 30 11 30 C11 31.32 11 32.64 11 34 C10.01 34 9.02 34 8 34 C8 30.04 8 26.08 8 22 C6.68 22 5.36 22 4 22 C4 20.68 4 19.36 4 18 C1.36 18 -1.28 18 -4 18 C-4 20.97 -4 23.94 -4 27 C-1.69 27 0.62 27 3 27 C3 27.99 3 28.98 3 30 C2.01 30 1.02 30 0 30 C0 31.32 0 32.64 0 34 C-2.64 34 -5.28 34 -8 34 C-8 32.68 -8 31.36 -8 30 C-8.99 30 -9.98 30 -11 30 C-11 26.04 -11 22.08 -11 18 C-10.01 18 -9.02 18 -8 18 C-8 17.01 -8 16.02 -8 15 C-4.04 15 -0.08 15 4 15 C4 13.68 4 12.36 4 11 C2.68 11 1.36 11 0 11 C0 9.68 0 8.36 0 7 C-2.31 7 -4.62 7 -7 7 C-7 6.01 -7 5.02 -7 4 C-4.69 4 -2.38 4 0 4 C0 2.68 0 1.36 0 0 Z " fill="#730000" transform="translate(115,89)"/>
<path d="M0 0 C1.98 0 3.96 0 6 0 C6 1.32 6 2.64 6 4 C7.32 4 8.64 4 10 4 C10 4.99 10 5.98 10 7 C8.68 7 7.36 7 6 7 C6 7.99 6 8.98 6 10 C4.35 10.33 2.7 10.66 1 11 C1 9.68 1 8.36 1 7 C-0.98 7 -2.96 7 -5 7 C-5 8.32 -5 9.64 -5 11 C-3.68 11 -2.36 11 -1 11 C-1 12.32 -1 13.64 -1 15 C1.64 15 4.28 15 7 15 C7 16.32 7 17.64 7 19 C7.99 19 8.98 19 10 19 C10 21.31 10 23.62 10 26 C9.01 26.33 8.02 26.66 7 27 C6.67 27.99 6.34 28.98 6 30 C3.69 30 1.38 30 -1 30 C-1 31.32 -1 32.64 -1 34 C-4.63 34 -8.26 34 -12 34 C-12 32.68 -12 31.36 -12 30 C-13.32 30 -14.64 30 -16 30 C-16 29.01 -16 28.02 -16 27 C-14.68 27 -13.36 27 -12 27 C-12 25.68 -12 24.36 -12 23 C-11.01 23 -10.02 23 -9 23 C-9 24.32 -9 25.64 -9 27 C-5.04 27 -1.08 27 3 27 C3 25.35 3 23.7 3 22 C2.01 22 1.02 22 0 22 C0 21.01 0 20.02 0 19 C-2.97 19 -5.94 19 -9 19 C-9 18.34 -9 17.68 -9 17 C-9.66 16.67 -10.32 16.34 -11 16 C-12 15 -12 15 -12.0625 11.4375 C-12.041875 10.303125 -12.02125 9.16875 -12 8 C-10.68 8 -9.36 8 -8 8 C-8 6.68 -8 5.36 -8 4 C-5.36 4 -2.72 4 0 4 C0 2.68 0 1.36 0 0 Z " fill="#730000" transform="translate(236,89)"/>
<path d="M0 0 C0.99 0 1.98 0 3 0 C3 1.32 3 2.64 3 4 C4.32 4 5.64 4 7 4 C7 6.31 7 8.62 7 11 C8.32 11 9.64 11 11 11 C11 13.64 11 16.28 11 19 C12.32 19 13.64 19 15 19 C15 22.63 15 26.26 15 30 C13.68 30 12.36 30 11 30 C11 31.32 11 32.64 11 34 C10.01 34 9.02 34 8 34 C8 30.04 8 26.08 8 22 C6.68 22 5.36 22 4 22 C4 20.68 4 19.36 4 18 C1.03 18 -1.94 18 -5 18 C-5 20.97 -5 23.94 -5 27 C-2.36 27 0.28 27 3 27 C3 27.99 3 28.98 3 30 C1.68 30 0.36 30 -1 30 C-1 31.32 -1 32.64 -1 34 C-3.31 34 -5.62 34 -8 34 C-8 32.68 -8 31.36 -8 30 C-9.32 30 -10.64 30 -12 30 C-12 26.37 -12 22.74 -12 19 C-10.68 19 -9.36 19 -8 19 C-8 17.68 -8 16.36 -8 15 C-4.04 15 -0.08 15 4 15 C4 13.68 4 12.36 4 11 C2.68 11 1.36 11 0 11 C0 9.68 0 8.36 0 7 C-2.64 7 -5.28 7 -8 7 C-8 6.01 -8 5.02 -8 4 C-5.36 4 -2.72 4 0 4 C0 2.68 0 1.36 0 0 Z " fill="#700000" transform="translate(73,89)"/>
<path d="M0 0 C6.93 0 13.86 0 21 0 C21.33 1.32 21.66 2.64 22 4 C22.61875 4.144375 23.2375 4.28875 23.875 4.4375 C26 5 26 5 28 6 C27.67 7.65 27.34 9.3 27 11 C27.66 11.33 28.32 11.66 29 12 C29 18.27 29 24.54 29 31 C28.01 31 27.02 31 26 31 C25.67 32.32 25.34 33.64 25 35 C21.7 35 18.4 35 15 35 C15 32.36 15 29.72 15 27 C16.65 27.33 18.3 27.66 20 28 C19.01 28.33 18.02 28.66 17 29 C17 30.32 17 31.64 17 33 C19.31 33 21.62 33 24 33 C24 31.68 24 30.36 24 29 C25.32 29 26.64 29 28 29 C28 24.05 28 19.1 28 14 C26.68 14 25.36 14 24 14 C24 11.36 24 8.72 24 6 C22.68 6 21.36 6 20 6 C20 4.68 20 3.36 20 2 C15.05 2 10.1 2 5 2 C5 3.32 5 4.64 5 6 C3.68 6 2.36 6 1 6 C1 6.99 1 7.98 1 9 C2.32 9 3.64 9 5 9 C5 23.19 5 37.38 5 52 C5.99 52 6.98 52 8 52 C8 50.68 8 49.36 8 48 C9.32 48 10.64 48 12 48 C12 35.13 12 22.26 12 9 C13.65 9.33 15.3 9.66 17 10 C17 10.99 17 11.98 17 13 C17.99 13 18.98 13 20 13 C20 15.64 20 18.28 20 21 C19.67 21 19.34 21 19 21 C19 19.02 19 17.04 19 15 C18.01 15 17.02 15 16 15 C14.8513433 18.71167362 14.79457567 22.30336227 14.68359375 26.171875 C14.66281265 26.8542926 14.64203156 27.53671021 14.62062073 28.23980713 C14.55547948 30.40977356 14.49640596 32.57985624 14.4375 34.75 C14.39428103 36.22527221 14.35066568 37.70053287 14.30664062 39.17578125 C14.19983482 42.78373166 14.09846847 46.39181133 14 50 C12.68 50 11.36 50 10 50 C10 51.32 10 52.64 10 54 C8.00045254 54.04254356 5.99958364 54.04080783 4 54 C3 53 3 53 2.88647461 49.03100586 C2.8866338 47.25894393 2.89233215 45.4868774 2.90234375 43.71484375 C2.90446617 42.31861534 2.90446617 42.31861534 2.90663147 40.8941803 C2.91224828 37.90858809 2.9248036 34.92306971 2.9375 31.9375 C2.94251284 29.91862087 2.94707612 27.89974057 2.95117188 25.88085938 C2.96222317 20.92054428 2.97949905 15.96028468 3 11 C1.68 11 0.36 11 -1 11 C-1.0270043 9.54176788 -1.04639787 8.08339325 -1.0625 6.625 C-1.07410156 5.81289062 -1.08570312 5.00078125 -1.09765625 4.1640625 C-1 2 -1 2 0 0 Z M2 1 C1.01 2.485 1.01 2.485 0 4 C0.99 4 1.98 4 3 4 C2.67 3.01 2.34 2.02 2 1 Z " fill="#0E0000" transform="translate(2,71)"/>
<path d="M0 0 C2.25137439 0.62003092 4.50105526 1.24621341 6.75 1.875 C8.00296875 2.22304687 9.2559375 2.57109375 10.546875 2.9296875 C13.24953641 3.76739025 15.5469357 4.62479728 18 6 C18 6.66 18 7.32 18 8 C18.556875 8.20625 19.11375 8.4125 19.6875 8.625 C22 10 22 10 27 16 C14.13 16 1.26 16 -12 16 C-10.16861269 12.33722538 -8.79561757 10.79561757 -6 8 C-4.98812105 6.34051852 -3.9873454 4.67419438 -3 3 C-2.01945928 1.98091222 -1.02240037 0.97708622 0 0 Z " fill="#BF9B80" transform="translate(205,240)"/>
<path d="M0 0 C2.31 0 4.62 0 7 0 C7 1.32 7 2.64 7 4 C9.64 4 12.28 4 15 4 C15 6.31 15 8.62 15 11 C13.68 11 12.36 11 11 11 C11 11.99 11 12.98 11 14 C10.01 14 9.02 14 8 14 C8 11.69 8 9.38 8 7 C4.04 7 0.08 7 -4 7 C-4 12.28 -4 17.56 -4 23 C-2.68 23 -1.36 23 0 23 C0 24.32 0 25.64 0 27 C3.63 27 7.26 27 11 27 C11 27.99 11 28.98 11 30 C8.69 30 6.38 30 4 30 C4 31.32 4 32.64 4 34 C1.69 34 -0.62 34 -3 34 C-3 32.68 -3 31.36 -3 30 C-4.32 30 -5.64 30 -7 30 C-7 28.68 -7 27.36 -7 26 C-8.32 26 -9.64 26 -11 26 C-11 20.06 -11 14.12 -11 8 C-9.68 8 -8.36 8 -7 8 C-7 6.68 -7 5.36 -7 4 C-4.69 4 -2.38 4 0 4 C0 2.68 0 1.36 0 0 Z " fill="#750000" transform="translate(202,89)"/>
<path d="M0 0 C1.051875 0.01353516 1.051875 0.01353516 2.125 0.02734375 C3.053125 0.04474609 3.053125 0.04474609 4 0.0625 C4.66 0.0625 5.32 0.0625 6 0.0625 C9.66666667 0.0625 13.33333333 0.0625 17 0.0625 C18.15941038 3.54073115 17.70820884 5.52145578 17 9.0625 C17.66 9.0625 18.32 9.0625 19 9.0625 C19 7.4125 19 5.7625 19 4.0625 C22.04386724 3.98023332 24.07175348 4.08641783 27 5.0625 C27.33 4.0725 27.66 3.0825 28 2.0625 C28.99 2.3925 29.98 2.7225 31 3.0625 C31 4.3825 31 5.7025 31 7.0625 C32.32 7.7225 33.64 8.3825 35 9.0625 C35 9.7225 35 10.3825 35 11.0625 C33.68 11.0625 32.36 11.0625 31 11.0625 C30.34 11.3925 29.68 11.7225 29 12.0625 C30.32 12.0625 31.64 12.0625 33 12.0625 C33.99 12.0625 34.98 12.0625 36 12.0625 C36 9.7525 36 7.4425 36 5.0625 C36.33 5.0625 36.66 5.0625 37 5.0625 C37 11.6625 37 18.2625 37 25.0625 C31 28.0625 31 28.0625 29 28.0625 C29 28.7225 29 29.3825 29 30.0625 C29.99 30.3925 30.98 30.7225 32 31.0625 C30.68 31.0625 29.36 31.0625 28 31.0625 C28 28.4225 28 25.7825 28 23.0625 C26.68 23.0625 25.36 23.0625 24 23.0625 C24 20.7525 24 18.4425 24 16.0625 C22.68 16.0625 21.36 16.0625 20 16.0625 C20 14.7425 20 13.4225 20 12.0625 C19.01 12.0625 18.02 12.0625 17 12.0625 C17 13.3825 17 14.7025 17 16.0625 C14.36 16.0625 11.72 16.0625 9 16.0625 C9 15.7325 9 15.4025 9 15.0625 C9.99 14.7325 10.98 14.4025 12 14.0625 C12 13.0725 12 12.0825 12 11.0625 C12.66 11.0625 13.32 11.0625 14 11.0625 C14 10.4025 14 9.7425 14 9.0625 C12.68 9.0625 11.36 9.0625 10 9.0625 C10 8.4025 10 7.7425 10 7.0625 C9.34 7.0625 8.68 7.0625 8 7.0625 C8 5.4125 8 3.7625 8 2.0625 C9.32 2.0625 10.64 2.0625 12 2.0625 C12.33 3.0525 12.66 4.0425 13 5.0625 C13.33 4.0725 13.66 3.0825 14 2.0625 C11.69 1.7325 9.38 1.4025 7 1.0625 C7 1.7225 7 2.3825 7 3.0625 C5.68 3.0625 4.36 3.0625 3 3.0625 C2.67 2.7325 2.34 2.4025 2 2.0625 C2 6.0225 2 9.9825 2 14.0625 C1.67 14.0625 1.34 14.0625 1 14.0625 C1 10.4325 1 6.8025 1 3.0625 C-0.32 3.3925 -1.64 3.7225 -3 4.0625 C-3 6.0425 -3 8.0225 -3 10.0625 C-3.66 10.0625 -4.32 10.0625 -5 10.0625 C-5.33 7.0925 -5.66 4.1225 -6 1.0625 C-3.73845106 -0.06827447 -2.50117171 -0.04137968 0 0 Z M21 5.0625 C21.99 6.5475 21.99 6.5475 23 8.0625 C23 7.0725 23 6.0825 23 5.0625 C22.34 5.0625 21.68 5.0625 21 5.0625 Z M14 6.0625 C15 9.0625 15 9.0625 15 9.0625 Z M26 6.0625 C25.67 6.7225 25.34 7.3825 25 8.0625 C24.01 8.7225 23.02 9.3825 22 10.0625 C23.32 10.0625 24.64 10.0625 26 10.0625 C25.814375 10.578125 25.62875 11.09375 25.4375 11.625 C24.84580483 14.92158739 25.432733 17.78495735 26 21.0625 C27.32 21.0625 28.64 21.0625 30 21.0625 C30 22.0525 30 23.0425 30 24.0625 C30.928125 23.5984375 30.928125 23.5984375 31.875 23.125 C33.25 22.4375 34.625 21.75 36 21.0625 C36 18.4225 36 15.7825 36 13.0625 C35.34 13.0625 34.68 13.0625 34 13.0625 C34 13.7225 34 14.3825 34 15.0625 C32.02 15.0625 30.04 15.0625 28 15.0625 C27.875 10.3125 27.875 10.3125 29 8.0625 C28.67 7.4025 28.34 6.7425 28 6.0625 C27.34 6.0625 26.68 6.0625 26 6.0625 Z " fill="#150000" transform="translate(56,76.9375)"/>
<path d="M0 0 C0.99 0 1.98 0 3 0 C3 6.6 3 13.2 3 20 C4.32 20 5.64 20 7 20 C7 20.99 7 21.98 7 23 C5.68 23 4.36 23 3 23 C3 30.59 3 38.18 3 46 C1.68 46 0.36 46 -1 46 C-1 47.32 -1 48.64 -1 50 C-1.99 50 -2.98 50 -4 50 C-4 35.81 -4 21.62 -4 7 C-5.32 7 -6.64 7 -8 7 C-8 6.01 -8 5.02 -8 4 C-5.36 4 -2.72 4 0 4 C0 2.68 0 1.36 0 0 Z " fill="#740000" transform="translate(40,73)"/>
<path d="M0 0 C0.66 0 1.32 0 2 0 C3.7265625 2.5546875 3.7265625 2.5546875 5.625 5.875 C6.57246094 7.51082031 6.57246094 7.51082031 7.5390625 9.1796875 C9 12 9 12 9 14 C7.31874988 15.19542478 5.57751917 16.30712843 3.8125 17.375 C0.81525274 19.19662016 -1.90494934 20.91703081 -4.55078125 23.2265625 C-7.33205937 25.24043852 -8.64787152 25.3831004 -12 25 C-12.86627399 23.40233897 -13.71766465 21.79660056 -14.5625 20.1875 C-15.03816406 19.29417969 -15.51382813 18.40085938 -16.00390625 17.48046875 C-17 15 -17 15 -16 12 C-13.89479203 10.58782882 -11.82504497 9.30713751 -9.625 8.0625 C-5.64718698 5.80869546 -2.6427724 3.8107073 0 0 Z " fill="#916D52" transform="translate(184,194)"/>
<path d="M0 0 C0.99 0 1.98 0 3 0 C3 15.18 3 30.36 3 46 C1.68 46 0.36 46 -1 46 C-1 47.32 -1 48.64 -1 50 C-1.99 50 -2.98 50 -4 50 C-4 35.81 -4 21.62 -4 7 C-5.32 7 -6.64 7 -8 7 C-8 6.01 -8 5.02 -8 4 C-5.36 4 -2.72 4 0 4 C0 2.68 0 1.36 0 0 Z " fill="#770000" transform="translate(98,73)"/>
<path d="M0 0 C2.97 0 5.94 0 9 0 C9.66 1.32 10.32 2.64 11 4 C13.31 4 15.62 4 18 4 C18 7.96 18 11.92 18 16 C16.68 16 15.36 16 14 16 C14 17.32 14 18.64 14 20 C12.68 20 11.36 20 10 20 C10 20.99 10 21.98 10 23 C7.03 22.67 4.06 22.34 1 22 C1 20.68 1 19.36 1 18 C4.63 17.67 8.26 17.34 12 17 C12 16.01 12 15.02 12 14 C13.32 14 14.64 14 16 14 C16 11.69 16 9.38 16 7 C13.36 7 10.72 7 8 7 C8 5.68 8 4.36 8 3 C5.69 3 3.38 3 1 3 C1 4.32 1 5.64 1 7 C-1.31 7 -3.62 7 -6 7 C-6 8.32 -6 9.64 -6 11 C-7.32 11 -8.64 11 -10 11 C-10 16.94 -10 22.88 -10 29 C-8.68 29 -7.36 29 -6 29 C-6.33 30.32 -6.66 31.64 -7 33 C-7 32.01 -7 31.02 -7 30 C-8.65 30 -10.3 30 -12 30 C-12 33.63 -12 37.26 -12 41 C-13.32 40.67 -14.64 40.34 -16 40 C-15.01 40 -14.02 40 -13 40 C-13 36.7 -13 33.4 -13 30 C-14.32 29.67 -15.64 29.34 -17 29 C-17 28.01 -17 27.02 -17 26 C-17.99 25.67 -18.98 25.34 -20 25 C-18.35 25 -16.7 25 -15 25 C-14.67 25.99 -14.34 26.98 -14 28 C-13.34 28 -12.68 28 -12 28 C-12.02356567 27.15236084 -12.02356567 27.15236084 -12.04760742 26.28759766 C-12.10987045 23.73349977 -12.14896136 21.17956129 -12.1875 18.625 C-12.21263672 17.73554687 -12.23777344 16.84609375 -12.26367188 15.9296875 C-12.27817383 14.65351562 -12.27817383 14.65351562 -12.29296875 13.3515625 C-12.3086792 12.56604004 -12.32438965 11.78051758 -12.34057617 10.97119141 C-12.22818604 10.32069824 -12.1157959 9.67020508 -12 9 C-11.01 8.34 -10.02 7.68 -9 7 C-8.67 6.01 -8.34 5.02 -8 4 C-5.69 4 -3.38 4 -1 4 C-0.67 2.68 -0.34 1.36 0 0 Z " fill="#180000" transform="translate(201,86)"/>
<path d="M0 0 C0.99 0 1.98 0 3 0 C3 1.32 3 2.64 3 4 C4.32 4 5.64 4 7 4 C7 4.99 7 5.98 7 7 C5.68 7 4.36 7 3 7 C3 14.59 3 22.18 3 30 C1.68 30 0.36 30 -1 30 C-1 31.32 -1 32.64 -1 34 C-1.99 34 -2.98 34 -4 34 C-4 25.09 -4 16.18 -4 7 C-5.32 7 -6.64 7 -8 7 C-8 6.01 -8 5.02 -8 4 C-5.36 4 -2.72 4 0 4 C0 2.68 0 1.36 0 0 Z " fill="#710000" transform="translate(141,89)"/>
<path d="M0 0 C2.31 0 4.62 0 7 0 C7 1.32 7 2.64 7 4 C8.32 4 9.64 4 11 4 C11 12.58 11 21.16 11 30 C9.68 30 8.36 30 7 30 C7 32.64 7 35.28 7 38 C6.01 38 5.02 38 4 38 C4 26.45 4 14.9 4 3 C2.68 3 1.36 3 0 3 C0 2.01 0 1.02 0 0 Z " fill="#720000" transform="translate(48,89)"/>
<path d="M0 0 C1.98 0 3.96 0 6 0 C6 1.32 6 2.64 6 4 C7.32 4 8.64 4 10 4 C10 12.58 10 21.16 10 30 C8.68 30 7.36 30 6 30 C6 31.32 6 32.64 6 34 C5.01 34 4.02 34 3 34 C3 23.77 3 13.54 3 3 C2.01 3 1.02 3 0 3 C0 2.01 0 1.02 0 0 Z " fill="#750000" transform="translate(149,89)"/>
<path d="M0 0 C5.94 0 11.88 0 18 0 C18 0.99 18 1.98 18 3 C20.64 2.67 23.28 2.34 26 2 C26 1.34 26 0.68 26 0 C28.475 0.495 28.475 0.495 31 1 C27.21271025 4.21345797 23.33670304 6.64161318 19 9 C18.0925 9.556875 17.185 10.11375 16.25 10.6875 C11.59804337 12.56617479 6.97648343 12.74320637 2 13 C2 12.34 2 11.68 2 11 C6.95 9.515 6.95 9.515 12 8 C10.5975 7.54625 9.195 7.0925 7.75 6.625 C4.68124642 5.63216796 1.85410334 4.50560497 -1 3 C-0.67 2.01 -0.34 1.02 0 0 Z " fill="#0F65E1" transform="translate(212,150)"/>
<path d="M0 0 C0.83848804 1.45537568 1.67063934 2.91440373 2.5 4.375 C2.9640625 5.18710938 3.428125 5.99921875 3.90625 6.8359375 C5 9 5 9 5 11 C2.69921875 12.76171875 2.69921875 12.76171875 -0.3125 14.6875 C-1.29863281 15.33074219 -2.28476563 15.97398437 -3.30078125 16.63671875 C-4.19152344 17.08660156 -5.08226562 17.53648437 -6 18 C-6.99 17.67 -7.98 17.34 -9 17 C-9.67566801 11.59465589 -9.45019529 7.94082511 -6.1875 3.4375 C-3.47368421 0 -3.47368421 0 0 0 Z " fill="#BF9980" transform="translate(188,197)"/>
<path d="M0 0 C4.81640666 0.42698641 6.64599422 2.28143626 9.75 5.875 C10.52859375 6.75929687 11.3071875 7.64359375 12.109375 8.5546875 C14 11 14 11 15 14 C17.00016466 15.20882096 17.00016466 15.20882096 19 16 C19 16.66 19 17.32 19 18 C19.58265625 18.24492187 20.1653125 18.48984375 20.765625 18.7421875 C23.36302236 20.20435874 24.83975831 21.84740414 26.75 24.125 C27.36359375 24.84945312 27.9771875 25.57390625 28.609375 26.3203125 C29.06828125 26.87460938 29.5271875 27.42890625 30 28 C28.2734375 28.7578125 28.2734375 28.7578125 26 29 C23.8515625 27.3046875 23.8515625 27.3046875 21.625 24.875 C17.93912224 20.94978783 17.93912224 20.94978783 13.875 17.4375 C10.19278944 14.31562583 6.89093086 10.87453159 4 7 C4 6.34 4 5.68 4 5 C3.01 4.67 2.02 4.34 1 4 C0.3125 1.9375 0.3125 1.9375 0 0 Z " fill="#43482D" transform="translate(217,227)"/>
<path d="M0 0 C1.50433594 0.01353516 1.50433594 0.01353516 3.0390625 0.02734375 C3.80992188 0.03894531 4.58078125 0.05054687 5.375 0.0625 C5.375 1.3825 5.375 2.7025 5.375 4.0625 C6.695 4.0625 8.015 4.0625 9.375 4.0625 C9.375 5.3825 9.375 6.7025 9.375 8.0625 C5.415 8.0625 1.455 8.0625 -2.625 8.0625 C-2.625 9.0525 -2.625 10.0425 -2.625 11.0625 C-4.5625 11.625 -4.5625 11.625 -6.625 12.0625 C-7.625 11.0625 -7.625 11.0625 -7.72265625 8.77734375 C-7.71105469 7.86082031 -7.69945313 6.94429688 -7.6875 6 C-7.67847656 5.08089844 -7.66945313 4.16179687 -7.66015625 3.21484375 C-7.64855469 2.50457031 -7.63695313 1.79429688 -7.625 1.0625 C-4.98041621 -0.25979189 -2.94738699 -0.03427194 0 0 Z " fill="#030000" transform="translate(109.625,95.9375)"/>
<path d="M0 0 C1.32 0 2.64 0 4 0 C4.66 1.32 5.32 2.64 6 4 C7.32 4 8.64 4 10 4 C10 3.01 10 2.02 10 1 C18.25 1.33 26.5 1.66 35 2 C35 2.33 35 2.66 35 3 C27.74 3 20.48 3 13 3 C13 3.99 13 4.98 13 6 C11.68 6 10.36 6 9 6 C9 9.63 9 13.26 9 17 C10.32 17 11.64 17 13 17 C13 19.64 13 22.28 13 25 C12.67 25 12.34 25 12 25 C12 22.69 12 20.38 12 18 C10.68 18 9.36 18 8 18 C7.67 22.95 7.34 27.9 7 33 C6.67 33 6.34 33 6 33 C6 24.42 6 15.84 6 7 C4.68 7 3.36 7 2 7 C2 5.68 2 4.36 2 3 C0.02 3 -1.96 3 -4 3 C-4.33 3.99 -4.66 4.98 -5 6 C-5 4.68 -5 3.36 -5 2 C-3.35 1.67 -1.7 1.34 0 1 C0 0.67 0 0.34 0 0 Z " fill="#180000" transform="translate(153,86)"/>
<path d="M0 0 C2.81289691 2.81289691 2.52217375 5.07615581 2.9375 9 C3.56100927 14.42395035 4.61039773 19.39369318 6.3359375 24.5703125 C7.53602946 28.9612372 7.75023675 33.46981131 8 38 C5 37 5 37 3.3125 34.375 C1.83544275 30.57685278 2 28.06252261 2 24 C0.88908287 18.56391217 -0.60796382 13.23475369 -2.25 7.9375 C-3 5 -3 5 -2 2 C-1.34 2 -0.68 2 0 2 C0 1.34 0 0.68 0 0 Z " fill="#3E0000" transform="translate(64,168)"/>
<path d="M0 0 C1.32 0 2.64 0 4 0 C4.78375 -0.04125 5.5675 -0.0825 6.375 -0.125 C10.30925512 0.06234548 13.59781008 0.61983401 16.4921875 3.46875 C17.71637564 4.93500925 18.86464262 6.46392825 20 8 C16.38467189 9.20510937 15.3061781 8.38327313 11.984375 6.8359375 C8.7495179 5.47322211 5.41733129 4.77939135 2 4 C0.35 5.98 -1.3 7.96 -3 10 C-3.88672454 7.5171713 -4.14518218 6.37970723 -3.1875 3.875 C-2 2 -2 2 0 0 Z " fill="#B1886C" transform="translate(203,237)"/>
<path d="M0 0 C0.474375 0.639375 0.94875 1.27875 1.4375 1.9375 C2.88939743 4.31254537 2.88939743 4.31254537 6 4.6875 C7.485 4.8421875 7.485 4.8421875 9 5 C9.99 5.33 10.98 5.66 12 6 C12 6.66 12 7.32 12 8 C13.32 8 14.64 8 16 8 C16 8.66 16 9.32 16 10 C19.465 9.505 19.465 9.505 23 9 C23.33 9.66 23.66 10.32 24 11 C18.25 16 18.25 16 16 16 C15.608125 15.2575 15.21625 14.515 14.8125 13.75 C11.08957 8.10141655 5.23760408 6.67078681 -1 5 C-3.36955184 4.06794536 -5.67604296 3.04340928 -8 2 C-4.77856724 -0.14762184 -3.7404533 -0.561068 0 0 Z " fill="#8A6148" transform="translate(139,170)"/>
<path d="M0 0 C2 2 2 2 2 5 C3.32 5.66 4.64 6.32 6 7 C6 7.66 6 8.32 6 9 C4.68 9 3.36 9 2 9 C1.01 9.495 1.01 9.495 0 10 C1.32 10 2.64 10 4 10 C4.99 10 5.98 10 7 10 C7 7.69 7 5.38 7 3 C7.33 3 7.66 3 8 3 C8 9.6 8 16.2 8 23 C5.69 23.99 3.38 24.98 1 26 C1 24.68 1 23.36 1 22 C4.21428571 19 4.21428571 19 7 19 C7 16.36 7 13.72 7 11 C6.34 11 5.68 11 5 11 C5 11.66 5 12.32 5 13 C3.02 13 1.04 13 -1 13 C-2.125 8.25 -2.125 8.25 -1 6 C-1 5.154375 -1 4.30875 -1 3.4375 C-1 1 -1 1 0 0 Z " fill="#2C0000" transform="translate(85,79)"/>
<path d="M0 0 C-1.875 3.875 -1.875 3.875 -3 5 C-2.81932155 7.30816714 -2.48002249 9.57893166 -2.15625 11.87109375 C-2 14 -2 14 -3 16 C-3.66 16 -4.32 16 -5 16 C-5.33 16.66 -5.66 17.32 -6 18 C-6.86627399 16.40233897 -7.71766465 14.79660056 -8.5625 13.1875 C-9.03816406 12.29417969 -9.51382813 11.40085938 -10.00390625 10.48046875 C-11 8 -11 8 -10 5 C-8.22265625 3.61328125 -8.22265625 3.61328125 -6.0625 2.3125 C-5.35222656 1.87550781 -4.64195312 1.43851563 -3.91015625 0.98828125 C-2 0 -2 0 0 0 Z " fill="#6D412B" transform="translate(178,201)"/>
<path d="M0 0 C0.33 0 0.66 0 1 0 C1.33 6.27 1.66 12.54 2 19 C2.99 19 3.98 19 5 19 C5 20.32 5 21.64 5 23 C3.68 23.33 2.36 23.66 1 24 C1.14042877 25.64630328 1.28749329 27.29204179 1.4375 28.9375 C1.51871094 29.85402344 1.59992188 30.77054688 1.68359375 31.71484375 C1.76044976 33.96159732 1.76044976 33.96159732 3 35 C3.07226502 36.85287502 3.0838122 38.70833878 3.0625 40.5625 C3.05347656 41.57441406 3.04445313 42.58632812 3.03515625 43.62890625 C3.02355469 44.41136719 3.01195313 45.19382813 3 46 C2.01 46 1.02 46 0 46 C0 30.82 0 15.64 0 0 Z " fill="#1D0202" transform="translate(101,73)"/>
<path d="M0 0 C0.66 0.33 1.32 0.66 2 1 C2 4.96 2 8.92 2 13 C3.32 13.66 4.64 14.32 6 15 C6.56332703 24.57655955 6.56332703 24.57655955 3 29 C1.37163262 30.7041054 -0.28769752 32.38025441 -2 34 C-2 30.57627645 -1.61233541 30.28275891 0.5 27.8125 C3.55719893 23.78216451 3.43414251 20.94922458 3 16 C2.01 15.67 1.02 15.34 0 15 C-1.0024305 9.65370398 -0.84888195 5.37625234 0 0 Z " fill="#414141" transform="translate(157,22)"/>
<path d="M0 0 C0.33 0.66 0.66 1.32 1 2 C1.5775 1.67 2.155 1.34 2.75 1 C5 0 5 0 9 0 C9.08121924 1.60332791 9.13929134 3.20784026 9.1875 4.8125 C9.22230469 5.70582031 9.25710937 6.59914062 9.29296875 7.51953125 C9 10 9 10 7.65625 11.8125 C5.39235443 13.43567041 3.71692729 13.2202914 1 13 C1.99 12.67 2.98 12.34 4 12 C3.79503906 11.46890625 3.59007812 10.9378125 3.37890625 10.390625 C2.97478516 9.33101562 2.97478516 9.33101562 2.5625 8.25 C2.29566406 7.55390625 2.02882812 6.8578125 1.75390625 6.140625 C1.03853307 4.10940997 0.48634348 2.0964709 0 0 Z " fill="#AE7B5E" transform="translate(130,150)"/>
<path d="M0 0 C4.16138263 -0.08159574 7.9472484 0.01751476 12 1 C12.33 3.97 12.66 6.94 13 10 C11.68 10 10.36 10 9 10 C8.67 9.01 8.34 8.02 8 7 C7.01 6.67 6.02 6.34 5 6 C5 4.68 5 3.36 5 2 C3.35 1.67 1.7 1.34 0 1 C0 0.67 0 0.34 0 0 Z " fill="#121010" transform="translate(177,104)"/>
<path d="M0 0 C0.99 0 1.98 0 3 0 C3.83848804 1.45537568 4.67063934 2.91440373 5.5 4.375 C5.9640625 5.18710938 6.428125 5.99921875 6.90625 6.8359375 C8 9 8 9 8 11 C6.68 11.33 5.36 11.66 4 12 C3.34 10.02 2.68 8.04 2 6 C0.35 6 -1.3 6 -3 6 C-1.125 1.125 -1.125 1.125 0 0 Z " fill="#A3866D" transform="translate(185,197)"/>
<path d="M0 0 C3.71888239 0.50712033 6.73454239 1.11608215 10 3 C10 4.98 10 6.96 10 9 C5.49197399 7.74194623 2.5087188 6.09592835 -1 3 C-0.67 2.01 -0.34 1.02 0 0 Z " fill="#B1886C" transform="translate(115,157)"/>
<path d="M0 0 C3.95827235 -0.05785647 7.9164367 -0.09354717 11.875 -0.125 C13.00292969 -0.14175781 14.13085938 -0.15851563 15.29296875 -0.17578125 C16.36933594 -0.18222656 17.44570312 -0.18867187 18.5546875 -0.1953125 C19.54968262 -0.20578613 20.54467773 -0.21625977 21.56982422 -0.22705078 C24 0 24 0 26 2 C26 3.32 26 4.64 26 6 C25.34 6 24.68 6 24 6 C23.67 5.01 23.34 4.02 23 3 C11.615 2.505 11.615 2.505 0 2 C0 1.34 0 0.68 0 0 Z " fill="#030000" transform="translate(165,86)"/>
<path d="M0 0 C2.97 0 5.94 0 9 0 C8.67 1.32 8.34 2.64 8 4 C8 3.01 8 2.02 8 1 C5.69 1 3.38 1 1 1 C2.06645115 2.29633621 2.06645115 2.29633621 4.5625 2.0625 C5.366875 2.041875 6.17125 2.02125 7 2 C7.68707555 4.49064888 8 6.37886292 8 9 C5.36 9 2.72 9 0 9 C0 6.03 0 3.06 0 0 Z " fill="#230606" transform="translate(68,107)"/>
<path d="M0 0 C-0.20496094 0.54527344 -0.40992188 1.09054688 -0.62109375 1.65234375 C-2.58675979 7.15432765 -3.53781602 12.1764819 -4 18 C-7.49043452 12.76434822 -7.06507347 7.88276824 -6.44921875 1.85546875 C-6.30097656 1.24316406 -6.15273438 0.63085938 -6 0 C-3.50907189 -1.24546405 -2.58919267 -0.7767578 0 0 Z " fill="#340303" transform="translate(63,121)"/>
<path d="M0 0 C2.97 1.65 5.94 3.3 9 5 C9 5.66 9 6.32 9 7 C11.97 7.495 11.97 7.495 15 8 C15 7.34 15 6.68 15 6 C18.875 7.75 18.875 7.75 20 10 C10.56539168 11.0748288 10.56539168 11.0748288 6.78125 8.4765625 C5.0857492 6.71640277 3.55126038 4.88593463 2 3 C1.34 2.67 0.68 2.34 0 2 C0 1.34 0 0.68 0 0 Z " fill="#A1866B" transform="translate(223,246)"/>
<path d="M0 0 C0.33 0.99 0.66 1.98 1 3 C-0.32 3 -1.64 3 -3 3 C-3 3.99 -3 4.98 -3 6 C-5.97 5.67 -8.94 5.34 -12 5 C-12 3.68 -12 2.36 -12 1 C-6.06 0.505 -6.06 0.505 0 0 Z " fill="#190000" transform="translate(214,103)"/>
<path d="M0 0 C3.875 1.75 3.875 1.75 5 4 C4.66015625 6.3828125 4.66015625 6.3828125 4.0625 9.125 C3.86785156 10.03507812 3.67320313 10.94515625 3.47265625 11.8828125 C3.31667969 12.58148438 3.16070312 13.28015625 3 14 C1.35 14 -0.3 14 -2 14 C-1.484375 12.989375 -0.96875 11.97875 -0.4375 10.9375 C1.26408951 7.0413371 0.93322076 4.15707428 0 0 Z " fill="#1D0C0C" transform="translate(109,77)"/>
<path d="M0 0 C0.33 0 0.66 0 1 0 C2.33257403 11.52164009 2.33257403 11.52164009 1 17 C0.34 17 -0.32 17 -1 17 C-1.33 17.66 -1.66 18.32 -2 19 C-1.85913398 16.39547729 -1.71251536 13.79149803 -1.5625 11.1875 C-1.50352539 10.08051758 -1.50352539 10.08051758 -1.44335938 8.95117188 C-1.25618965 5.76928658 -1.01279207 3.03837622 0 0 Z " fill="#3A0000" transform="translate(218,201)"/>
<path d="M0 0 C1.74627478 2.61941217 2.38722388 4.03824877 3 7 C3.33 7 3.66 7 4 7 C5.23076923 12.41538462 5.23076923 12.41538462 4.0625 15.375 C3.711875 15.91125 3.36125 16.4475 3 17 C-0.9788249 11.03176265 -1.18046274 6.84668387 0 0 Z " fill="#311B1F" transform="translate(210,148)"/>
<path d="M0 0 C1.65 0.33 3.3 0.66 5 1 C5.33 2.98 5.66 4.96 6 7 C5.01 7.33 4.02 7.66 3 8 C0.8125 6.5625 0.8125 6.5625 -1 5 C-0.67 3.35 -0.34 1.7 0 0 Z " fill="#301511" transform="translate(104,41)"/>
<path d="M0 0 C0.66 0 1.32 0 2 0 C2 0.99 2 1.98 2 3 C5.96 3 9.92 3 14 3 C14 2.01 14 1.02 14 0 C14.66 0 15.32 0 16 0 C15.67 1.65 15.34 3.3 15 5 C10.38 5 5.76 5 1 5 C0.67 3.35 0.34 1.7 0 0 Z " fill="#000000" transform="translate(221,120)"/>
<path d="M0 0 C2.64 0 5.28 0 8 0 C9.32719886 6.96779403 9.08825381 13.92988911 9 21 C8.34 21 7.68 21 7 21 C7 14.73 7 8.46 7 2 C5.02 2.33 3.04 2.66 1 3 C0.67 2.01 0.34 1.02 0 0 Z " fill="#030000" transform="translate(37,71)"/>
<path d="M0 0 C0.38218767 1.65614657 0.71395102 3.32457024 1 5 C0 6 0 6 -2.5 6.125 C-5 6 -5 6 -6 5 C-6.04063832 3.33382885 -6.042721 1.66611905 -6 0 C-3.50907189 -1.24546405 -2.58919267 -0.7767578 0 0 Z " fill="#361612" transform="translate(138,41)"/>
<path d="M0 0 C4.12338964 -0.24255233 7.23241816 0.27319166 11 2 C12.91459243 3.8845203 14.39383461 5.8269527 16 8 C15.01 8.33 14.02 8.66 13 9 C12.67 7.68 12.34 6.36 12 5 C6.06 3.515 6.06 3.515 0 2 C0 1.34 0 0.68 0 0 Z " fill="#A57A5E" transform="translate(207,237)"/>
<path d="M0 0 C2.31 0 4.62 0 7 0 C7 0.66 7 1.32 7 2 C9.64 2 12.28 2 15 2 C15 2.33 15 2.66 15 3 C13.84371094 3.19916016 13.84371094 3.19916016 12.6640625 3.40234375 C11.66117188 3.57894531 10.65828125 3.75554687 9.625 3.9375 C8.12839844 4.19853516 8.12839844 4.19853516 6.6015625 4.46484375 C4.03090344 4.87712062 4.03090344 4.87712062 2 6 C1.34 4.02 0.68 2.04 0 0 Z " fill="#36251C" transform="translate(179,235)"/>
<path d="M0 0 C1.9375 0.6875 1.9375 0.6875 4 2 C4.75 4.625 4.75 4.625 5 7 C4.278125 6.814375 3.55625 6.62875 2.8125 6.4375 C-0.12826973 5.98004693 -2.14103058 6.26483643 -5 7 C-4.67 6.34 -4.34 5.68 -4 5 C-3.34 5 -2.68 5 -2 5 C-1.7834375 4.0409375 -1.7834375 4.0409375 -1.5625 3.0625 C-1 1 -1 1 0 0 Z " fill="#220D08" transform="translate(131,134)"/>
<path d="M0 0 C-1.875 3.875 -1.875 3.875 -3 5 C-2.81932155 7.30816714 -2.48002249 9.57893166 -2.15625 11.87109375 C-2 14 -2 14 -3 16 C-3.66 16 -4.32 16 -5 16 C-5.33 16.66 -5.66 17.32 -6 18 C-6.05418326 15.91695462 -6.09287551 13.83350232 -6.125 11.75 C-6.14820313 10.58984375 -6.17140625 9.4296875 -6.1953125 8.234375 C-6.00925052 5.15318867 -5.71695953 3.5214091 -4 1 C-2 0 -2 0 0 0 Z " fill="#7C543A" transform="translate(178,201)"/>
<path d="M0 0 C8.25 0.33 16.5 0.66 25 1 C25 1.33 25 1.66 25 2 C17.74 2 10.48 2 3 2 C3 2.99 3 3.98 3 5 C1.68 4.67 0.36 4.34 -1 4 C-0.67 2.68 -0.34 1.36 0 0 Z " fill="#2F0000" transform="translate(163,87)"/>
<path d="M0 0 C0.125 2.875 0.125 2.875 0 6 C-2 8 -2 8 -4.625 8.125 C-5.40875 8.08375 -6.1925 8.0425 -7 8 C-5.84316054 5.30070793 -3.38550714 0 0 0 Z " fill="#B18D71" transform="translate(200,248)"/>
<path d="M0 0 C0.99 0 1.98 0 3 0 C3.33 3.3 3.66 6.6 4 10 C2.35 10.33 0.7 10.66 -1 11 C-1 10.34 -1 9.68 -1 9 C-0.34 9 0.32 9 1 9 C0.67 6.03 0.34 3.06 0 0 Z " fill="#8E6247" transform="translate(174,208)"/>
<path d="M0 0 C0.33 0.66 0.66 1.32 1 2 C1.99 2 2.98 2 4 2 C5.19287411 5.87684087 6 8.91621923 6 13 C4.35 13 2.7 13 1 13 C1.99 12.67 2.98 12.34 4 12 C3.79503906 11.46890625 3.59007812 10.9378125 3.37890625 10.390625 C2.97478516 9.33101562 2.97478516 9.33101562 2.5625 8.25 C2.29566406 7.55390625 2.02882812 6.8578125 1.75390625 6.140625 C1.03853307 4.10940997 0.48634348 2.0964709 0 0 Z " fill="#9D674E" transform="translate(130,150)"/>
<path d="M0 0 C1.32 0 2.64 0 4 0 C4.33 0.99 4.66 1.98 5 3 C5.66 3.33 6.32 3.66 7 4 C6.67 4.99 6.34 5.98 6 7 C4.68 7 3.36 7 2 7 C2 6.34 2 5.68 2 5 C1.34 5 0.68 5 0 5 C0 3.35 0 1.7 0 0 Z " fill="#110000" transform="translate(64,79)"/>
<path d="M0 0 C0.66 0.33 1.32 0.66 2 1 C2 4.96 2 8.92 2 13 C1.01 13 0.02 13 -1 13 C-0.67 8.71 -0.34 4.42 0 0 Z " fill="#2C2C2C" transform="translate(157,22)"/>
<path d="M0 0 C0.99 0.33 1.98 0.66 3 1 C2.16855469 1.72316406 2.16855469 1.72316406 1.3203125 2.4609375 C0.59585938 3.09257812 -0.12859375 3.72421875 -0.875 4.375 C-1.59429687 5.00148437 -2.31359375 5.62796875 -3.0546875 6.2734375 C-4.4076598 7.47426834 -5.7208345 8.7208345 -7 10 C-9.125 9.625 -9.125 9.625 -11 9 C-9.9275 8.2575 -8.855 7.515 -7.75 6.75 C-4.89115898 4.71459798 -2.39204215 2.58340552 0 0 Z " fill="#7F5138" transform="translate(211,224)"/>
<path d="M0 0 C0.66 0 1.32 0 2 0 C2.33 2.31 2.66 4.62 3 7 C1.68 7.33 0.36 7.66 -1 8 C-1.625 5.6875 -1.625 5.6875 -2 3 C-1.34 2.01 -0.68 1.02 0 0 Z " fill="#230404" transform="translate(144,70)"/>
<path d="M0 0 C2.97 0 5.94 0 9 0 C8.67 0.99 8.34 1.98 8 3 C5.36 3 2.72 3 0 3 C0 2.01 0 1.02 0 0 Z " fill="#603E30" transform="translate(176,229)"/>
<path d="M0 0 C0 3.11227195 -0.45627049 5.94152152 -1 9 C0.98 8.67 2.96 8.34 5 8 C3.68 9.32 2.36 10.64 1 12 C0.01 11.67 -0.98 11.34 -2 11 C-2.05399736 9.54207116 -2.09279177 8.08357288 -2.125 6.625 C-2.15980469 5.40683594 -2.15980469 5.40683594 -2.1953125 4.1640625 C-2 2 -2 2 0 0 Z " fill="#AE846A" transform="translate(181,203)"/>
<path d="M0 0 C1 3 1 3 1 6 C-0.98 5.34 -2.96 4.68 -5 4 C-5 3.01 -5 2.02 -5 1 C-3.35 0.67 -1.7 0.34 0 0 Z " fill="#A87A5F" transform="translate(124,160)"/>
<path d="M0 0 C0.33 0 0.66 0 1 0 C1.33 2.97 1.66 5.94 2 9 C-2.43076923 11.09230769 -2.43076923 11.09230769 -5.3125 10.625 C-5.869375 10.41875 -6.42625 10.2125 -7 10 C-6.01 10 -5.02 10 -4 10 C-4 9.01 -4 8.02 -4 7 C-2.68 7 -1.36 7 0 7 C0 4.69 0 2.38 0 0 Z " fill="#1B0000" transform="translate(217,93)"/>
<path d="M0 0 C0.33 0.66 0.66 1.32 1 2 C2.97888961 2.72693904 4.97954558 3.39816251 7 4 C6.01 4.33 5.02 4.66 4 5 C3.67 5.99 3.34 6.98 3 8 C3 6.68 3 5.36 3 4 C1.35 4 -0.3 4 -2 4 C-2 3.34 -2 2.68 -2 2 C-2.66 1.67 -3.32 1.34 -4 1 C-2.68 0.67 -1.36 0.34 0 0 Z " fill="#BF977D" transform="translate(144,130)"/>
<path d="M0 0 C2.31 0 4.62 0 7 0 C7 1.32 7 2.64 7 4 C4.69 4 2.38 4 0 4 C0 2.68 0 1.36 0 0 Z " fill="#5F0000" transform="translate(19,100)"/>
<path d="M0 0 C3.875 1.75 3.875 1.75 5 4 C3.35333797 3.8864371 1.70763918 3.75882619 0.0625 3.625 C-0.85402344 3.55539063 -1.77054688 3.48578125 -2.71484375 3.4140625 C-3.84599609 3.20910156 -3.84599609 3.20910156 -5 3 C-5.33 2.34 -5.66 1.68 -6 1 C-3.03 1.495 -3.03 1.495 0 2 C0 1.34 0 0.68 0 0 Z " fill="#957F65" transform="translate(238,252)"/>
<path d="M0 0 C0.99 0 1.98 0 3 0 C3 0.99 3 1.98 3 3 C5.64 3 8.28 3 11 3 C11 3.33 11 3.66 11 4 C9.02 4 7.04 4 5 4 C5.33 5.32 5.66 6.64 6 8 C4.68 7.34 3.36 6.68 2 6 C2 4.35 2 2.7 2 1 C1.34 0.67 0.68 0.34 0 0 Z " fill="#161312" transform="translate(173,229)"/>
<path d="M0 0 C0.66 1.32 1.32 2.64 2 4 C-1.71888239 3.49287967 -4.73454239 2.88391785 -8 1 C-5.07175348 0.02391783 -3.04386724 -0.08226668 0 0 Z " fill="#976C52" transform="translate(139,170)"/>
<path d="M0 0 C0.66 0.33 1.32 0.66 2 1 C1.67 3.97 1.34 6.94 1 10 C0.34 10 -0.32 10 -1 10 C-1.33 7.03 -1.66 4.06 -2 1 C-1.34 0.67 -0.68 0.34 0 0 Z " fill="#3D0000" transform="translate(52,77)"/>
<path d="M0 0 C0.99 0.66 1.98 1.32 3 2 C-1.75 6 -1.75 6 -4 6 C-2.84826645 3.53199953 -1.95216435 1.95216435 0 0 Z " fill="#A87C60" transform="translate(203,237)"/>
<path d="M0 0 C2.625 -0.1875 2.625 -0.1875 5 0 C5 0.66 5 1.32 5 2 C3.02 2.66 1.04 3.32 -1 4 C-1 5.65 -1 7.3 -1 9 C-1.33 9 -1.66 9 -2 9 C-2.25 3.375 -2.25 3.375 0 0 Z " fill="#B69075" transform="translate(182,203)"/>
<path d="M0 0 C6.625 -0.25 6.625 -0.25 10 2 C10 2.66 10 3.32 10 4 C6.58978257 3.21302675 3.31114834 2.12880057 0 1 C0 0.67 0 0.34 0 0 Z " fill="#1B1818" transform="translate(177,104)"/>
<path d="M0 0 C0.66 0.33 1.32 0.66 2 1 C2 3.64 2 6.28 2 9 C1.34 9 0.68 9 0 9 C-0.84454356 5.62182575 -1.10844919 3.32534757 0 0 Z " fill="#73482F" transform="translate(171,207)"/>
<path d="M0 0 C-0.33 1.32 -0.66 2.64 -1 4 C-3.31 4 -5.62 4 -8 4 C-3.375 0 -3.375 0 0 0 Z " fill="#190C0C" transform="translate(93,102)"/>
<path d="M0 0 C0.33 0 0.66 0 1 0 C2 7.625 2 7.625 2 11 C1.34 11 0.68 11 0 11 C-1.28571429 3.57142857 -1.28571429 3.57142857 0 0 Z " fill="#9F745A" transform="translate(178,206)"/>
<path d="M0 0 C0.66 0.33 1.32 0.66 2 1 C0.515 3.475 0.515 3.475 -1 6 C-3.31 5.34 -5.62 4.68 -8 4 C-8 3.67 -8 3.34 -8 3 C-6.865625 2.690625 -5.73125 2.38125 -4.5625 2.0625 C-1.21224901 1.37075469 -1.21224901 1.37075469 0 0 Z " fill="#A57A5D" transform="translate(151,170)"/>
<path d="M0 0 C2.78637633 4.1795645 1.79562512 6.14668677 1 11 C-1.78637633 6.8204355 -0.79562512 4.85331323 0 0 Z " fill="#20191D" transform="translate(210,148)"/>
<path d="M0 0 C2.4375 0.8125 2.4375 0.8125 5 2 C5.33 2.99 5.66 3.98 6 5 C3.03 4.505 3.03 4.505 0 4 C0 2.68 0 1.36 0 0 Z " fill="#1F1C1C" transform="translate(170,99)"/>
<path d="M0 0 C1.98 0 3.96 0 6 0 C6 0.99 6 1.98 6 3 C4.02 3 2.04 3 0 3 C0 2.01 0 1.02 0 0 Z " fill="#700000" transform="translate(203,104)"/>
<path d="M0 0 C0.66 0 1.32 0 2 0 C2 2.97 2 5.94 2 9 C1.34 9 0.68 9 0 9 C0 6.03 0 3.06 0 0 Z " fill="#370000" transform="translate(2,83)"/>
<path d="M0 0 C3.3 0 6.6 0 10 0 C10.33 0.99 10.66 1.98 11 3 C9.68 3.33 8.36 3.66 7 4 C7 3.34 7 2.68 7 2 C4.69 1.67 2.38 1.34 0 1 C0 0.67 0 0.34 0 0 Z " fill="#030000" transform="translate(63,77)"/>
<path d="M0 0 C2.97 0.495 2.97 0.495 6 1 C6 2.32 6 3.64 6 5 C4.02 4.34 2.04 3.68 0 3 C0 2.01 0 1.02 0 0 Z " fill="#A48068" transform="translate(145,129)"/>
<path d="M0 0 C1.1875 1.625 1.1875 1.625 2 4 C0.625 7.25 0.625 7.25 -1 10 C-2.46726798 6.18510326 -1.43336419 3.70988378 0 0 Z " fill="#191919" transform="translate(155,40)"/>
<path d="M0 0 C1.65 0 3.3 0 5 0 C4.67 0.99 4.34 1.98 4 3 C3.01 3 2.02 3 1 3 C0.67 2.01 0.34 1.02 0 0 Z " fill="#170000" transform="translate(76,77)"/>
<path d="" fill="#000000" transform="translate(0,0)"/>
<path d="" fill="#010000" transform="translate(0,0)"/>
<path d="" fill="#030302" transform="translate(0,0)"/>
<path d="" fill="#0C0C0B" transform="translate(0,0)"/>
<path d="" fill="#0E0E0D" transform="translate(0,0)"/>
<path d="" fill="#3E0000" transform="translate(0,0)"/>
<path d="" fill="#130000" transform="translate(0,0)"/>
<path d="" fill="#000000" transform="translate(0,0)"/>
<path d="" fill="#050000" transform="translate(0,0)"/>
<path d="" fill="#080808" transform="translate(0,0)"/>
<path d="" fill="#090808" transform="translate(0,0)"/>
<path d="" fill="#020000" transform="translate(0,0)"/>
<path d="" fill="#000000" transform="translate(0,0)"/>
<path d="" fill="#0F1010" transform="translate(0,0)"/>
<path d="" fill="#121313" transform="translate(0,0)"/>
<path d="" fill="#070707" transform="translate(0,0)"/>
<path d="" fill="#434343" transform="translate(0,0)"/>
<path d="" fill="#414141" transform="translate(0,0)"/>
<path d="" fill="#454545" transform="translate(0,0)"/>
<path d="" fill="#151515" transform="translate(0,0)"/>
</svg>
